<svg version="1.1" xmlns="http://www.w3.org/2000/svg" xmlns:xlink="http://www.w3.org/1999/xlink" width="1039.07958984375" height="479"><defs/><g><g transform="translate(2,-342) scale(1,1)"><path fill="none" stroke="#000000" d="M 284 647 Q 328 624 320 552 Q 312 480 380 480 Q 448 480 466 453" stroke-miterlimit="10"/></g><g transform="translate(2,-342) scale(1,1)"><path fill="#FFFFFF" stroke="none" d="M 461.7305855004323 474.58175386364326 L 466 453 L 447.7204635487784 465.24167256254066"/></g><g transform="translate(2,-342) scale(1,1)"><path fill="none" stroke="#000000" d="M 461.7305855004323 474.58175386364326 L 466 453 L 447.7204635487784 465.24167256254066 L 461.7305855004323 474.58175386364326" stroke-miterlimit="10"/></g><g transform="translate(2,-342) scale(1,1)"><path fill="none" stroke="#000000" d="M 791 513 Q 784 520 784 600 Q 784 680 713 704" stroke-miterlimit="10"/></g><g transform="translate(2,-342) scale(1,1)"><path fill="#000000" stroke="none" d="M 721.2795095961045 696.7577820491224 L 713 704 L 723.9755188042011 704.7334759564081 L 733.8414925568993 696.9549884314706"/></g><g transform="translate(2,-342) scale(1,1)"><path fill="none" stroke="#000000" d="M 721.2795095961045 696.7577820491224 L 713 704 L 723.9755188042011 704.7334759564081 L 733.8414925568993 696.9549884314706 L 721.2795095961045 696.7577820491224" stroke-miterlimit="10"/></g><g transform="translate(2,-342) scale(1,1)"><path fill="none" stroke="#000000" d="M 632 703 Q 592 624 627 553" stroke-miterlimit="10"/></g><g transform="translate(2,-342) scale(1,1)"><path fill="#FFFFFF" stroke="none" d="M 625.5644455568754 574.9531132972256 L 627 553 L 610.4617144378793 567.5081049991289"/></g><g transform="translate(2,-342) scale(1,1)"><path fill="none" stroke="#000000" d="M 625.5644455568754 574.9531132972256 L 627 553 L 610.4617144378793 567.5081049991289 L 625.5644455568754 574.9531132972256" stroke-miterlimit="10"/></g><g transform="translate(2,-342) scale(1,1)"><rect fill="#C0C0C0" stroke="none" x="431" y="359" width="152" height="100" opacity="0.2"/></g><g transform="translate(2,-342) scale(1,1)"><rect fill="#ffffff" stroke="none" x="424" y="352" width="152" height="100"/></g><g transform="translate(2,-342) scale(1,1)"><path fill="none" stroke="#000000" d="M 424 352 L 576 352 L 576 452 L 424 452 L 424 352 Z Z" stroke-miterlimit="10"/></g><g transform="translate(2,-342) scale(1,1)"><path fill="none" stroke="#000000" d="M 424 377 L 576 377" stroke-miterlimit="10"/></g><g transform="translate(2,-342) scale(1,1)"><path fill="none" stroke="#000000" d="M 424 415 L 576 415" stroke-miterlimit="10"/></g><g transform="translate(2,-342) scale(1,1)"><g><path fill="none" stroke="none"/><text fill="#000000" stroke="none" font-family="Arial" font-size="13px" font-style="normal" font-weight="bold" text-decoration="none" x="483.37548828125" y="371.5">Value</text></g></g><g transform="translate(2,-342) scale(1,1)"><g><path fill="none" stroke="none"/><text fill="#000000" stroke="none" font-family="Arial" font-size="13px" font-style="normal" font-weight="normal" text-decoration="none" x="429" y="394.5">+reference: string</text></g></g><g transform="translate(2,-342) scale(1,1)"><g><path fill="none" stroke="none"/><text fill="#000000" stroke="none" font-family="Arial" font-size="13px" font-style="normal" font-weight="normal" text-decoration="none" x="429" y="409.5">+stamp: float</text></g></g><g transform="translate(2,-342) scale(1,1)"><g><path fill="none" stroke="none"/><text fill="#000000" stroke="none" font-family="Arial" font-size="13px" font-style="normal" font-weight="normal" text-decoration="none" x="429" y="432.5">+__lshift__(other): 4x4</text></g></g><g transform="translate(2,-342) scale(1,1)"><g><path fill="none" stroke="none"/><text fill="#000000" stroke="none" font-family="Arial" font-size="13px" font-style="normal" font-weight="normal" text-decoration="none" x="429" y="447.5">+__rshift__(other): 4x4</text></g></g><g transform="translate(2,-342) scale(1,1)"><rect fill="#C0C0C0" stroke="none" x="15" y="519" width="296" height="100" opacity="0.2"/></g><g transform="translate(2,-342) scale(1,1)"><rect fill="#ffffff" stroke="none" x="8" y="512" width="296" height="100"/></g><g transform="translate(2,-342) scale(1,1)"><path fill="none" stroke="#000000" d="M 8 512 L 304 512 L 304 612 L 8 612 L 8 512 Z Z" stroke-miterlimit="10"/></g><g transform="translate(2,-342) scale(1,1)"><path fill="none" stroke="#000000" d="M 8 537 L 304 537" stroke-miterlimit="10"/></g><g transform="translate(2,-342) scale(1,1)"><path fill="none" stroke="#000000" d="M 8 560 L 304 560" stroke-miterlimit="10"/></g><g transform="translate(2,-342) scale(1,1)"><g><path fill="none" stroke="none"/><text fill="#000000" stroke="none" font-family="Arial" font-size="13px" font-style="normal" font-weight="bold" text-decoration="none" x="119.148681640625" y="531.5">GroundTruth</text></g></g><g transform="translate(2,-342) scale(1,1)"><g><path fill="none" stroke="none"/><text fill="#000000" stroke="none" font-family="Arial" font-size="13px" font-style="normal" font-weight="normal" text-decoration="none" x="13" y="554.5">+marker: Marker</text></g></g><g transform="translate(2,-342) scale(1,1)"><g><path fill="none" stroke="none"/><text fill="#000000" stroke="none" font-family="Arial" font-size="13px" font-style="normal" font-weight="normal" text-decoration="none" x="13" y="577.5">+extrapolate(value[, method]): GroundTruth</text><path fill="none" stroke="#000000" d="M 13 577.5 L 263.38330078125 577.5" stroke-miterlimit="10"/></g></g><g transform="translate(2,-342) scale(1,1)"><g><path fill="none" stroke="none"/><text fill="#000000" stroke="none" font-family="Arial" font-size="13px" font-style="normal" font-weight="normal" text-decoration="none" x="13" y="592.5">+interpolate(sequence, stamp, ...): GroundTruth</text><path fill="none" stroke="#000000" d="M 13 592.5 L 287.94873046875 592.5" stroke-miterlimit="10"/></g></g><g transform="translate(2,-342) scale(1,1)"><g><path fill="none" stroke="none"/><text fill="#000000" stroke="none" font-family="Arial" font-size="13px" font-style="normal" font-weight="normal" text-decoration="none" x="13" y="607.5">+stereo(shutter): StereoImage</text></g></g><g transform="translate(2,-342) scale(1,1)"><path fill="none" stroke="#000000" d="M 216 511 Q 272 464 423 423" stroke-miterlimit="10"/></g><g transform="translate(2,-342) scale(1,1)"><path fill="#FFFFFF" stroke="none" d="M 405.5909423923929 436.45082574472724 L 423 423 L 401.17876721493855 420.201107408249"/></g><g transform="translate(2,-342) scale(1,1)"><path fill="none" stroke="#000000" d="M 405.5909423923929 436.45082574472724 L 423 423 L 401.17876721493855 420.201107408249 L 405.5909423923929 436.45082574472724" stroke-miterlimit="10"/></g><g transform="translate(2,-342) scale(1,1)"><rect fill="#C0C0C0" stroke="none" x="119" y="375" width="80" height="48" opacity="0.2"/></g><g transform="translate(2,-342) scale(1,1)"><rect fill="#ffffff" stroke="none" x="112" y="368" width="80" height="48"/></g><g transform="translate(2,-342) scale(1,1)"><path fill="none" stroke="#000000" d="M 112 368 L 192 368 L 192 416 L 112 416 L 112 368 Z Z" stroke-miterlimit="10"/></g><g transform="translate(2,-342) scale(1,1)"><path fill="none" stroke="#000000" d="M 112 393 L 192 393" stroke-miterlimit="10"/></g><g transform="translate(2,-342) scale(1,1)"><path fill="none" stroke="#000000" d="M 112 403 L 192 403" stroke-miterlimit="10"/></g><g transform="translate(2,-342) scale(1,1)"><g><path fill="none" stroke="none"/><text fill="#000000" stroke="none" font-family="Arial" font-size="13px" font-style="normal" font-weight="bold" text-decoration="none" x="131.7763671875" y="387.5">Marker</text></g></g><g transform="translate(2,-342) scale(1,1)"><path fill="none" stroke="#000000" d="M 153 417 L 155 511" stroke-miterlimit="10"/></g><g transform="translate(2,-342) scale(1,1)"><path fill="#000000" stroke="none" d="M 150.5752565323953 500.9291685921226 L 155 511 L 158.9923870697424 500.7500807083493 L 154.53202080720732 489.00497793874456"/></g><g transform="translate(2,-342) scale(1,1)"><path fill="none" stroke="#000000" d="M 150.5752565323953 500.9291685921226 L 155 511 L 158.9923870697424 500.7500807083493 L 154.53202080720732 489.00497793874456 L 150.5752565323953 500.9291685921226" stroke-miterlimit="10"/></g><g transform="translate(2,-342) scale(1,1)"><path fill="none" stroke="#000000" d="M 193 393 L 423 400" stroke-miterlimit="10"/></g><g transform="translate(2,-342) scale(1,1)"><path fill="#FFFFFF" stroke="none" d="M 402.42794426454066 407.7968277406363 L 423 400 L 402.9401701193618 390.9665496536564"/></g><g transform="translate(2,-342) scale(1,1)"><path fill="none" stroke="#000000" d="M 402.42794426454066 407.7968277406363 L 423 400 L 402.9401701193618 390.9665496536564 L 402.42794426454066 407.7968277406363" stroke-miterlimit="10"/></g><g transform="translate(2,-342) scale(1,1)"><rect fill="#C0C0C0" stroke="none" x="15" y="655" width="296" height="130" opacity="0.2"/></g><g transform="translate(2,-342) scale(1,1)"><rect fill="#ffffff" stroke="none" x="8" y="648" width="296" height="130"/></g><g transform="translate(2,-342) scale(1,1)"><path fill="none" stroke="#000000" d="M 8 648 L 304 648 L 304 778 L 8 778 L 8 648 Z Z" stroke-miterlimit="10"/></g><g transform="translate(2,-342) scale(1,1)"><path fill="none" stroke="#000000" d="M 8 673 L 304 673" stroke-miterlimit="10"/></g><g transform="translate(2,-342) scale(1,1)"><path fill="none" stroke="#000000" d="M 8 711 L 304 711" stroke-miterlimit="10"/></g><g transform="translate(2,-342) scale(1,1)"><g><path fill="none" stroke="none"/><text fill="#000000" stroke="none" font-family="Arial" font-size="13px" font-style="normal" font-weight="bold" text-decoration="none" x="145.16455078125" y="667.5">Imu</text></g></g><g transform="translate(2,-342) scale(1,1)"><g><path fill="none" stroke="none"/><text fill="#000000" stroke="none" font-family="Arial" font-size="13px" font-style="normal" font-weight="normal" text-decoration="none" x="13" y="690.5">+acceleration: 3x1</text></g></g><g transform="translate(2,-342) scale(1,1)"><g><path fill="none" stroke="none"/><text fill="#000000" stroke="none" font-family="Arial" font-size="13px" font-style="normal" font-weight="normal" text-decoration="none" x="13" y="705.5">+angular_velocity: 3x1</text></g></g><g transform="translate(2,-342) scale(1,1)"><g><path fill="none" stroke="none"/><text fill="#000000" stroke="none" font-family="Arial" font-size="13px" font-style="normal" font-weight="normal" text-decoration="none" x="13" y="728.5">+extrapolate(value[, method]): Imu</text><path fill="none" stroke="#000000" d="M 13 728.5 L 211.3515625 728.5" stroke-miterlimit="10"/></g></g><g transform="translate(2,-342) scale(1,1)"><g><path fill="none" stroke="none"/><text fill="#000000" stroke="none" font-family="Arial" font-size="13px" font-style="normal" font-weight="normal" text-decoration="none" x="13" y="743.5">+interpolate(sequence, stamp, ...): Imu</text><path fill="none" stroke="#000000" d="M 13 743.5 L 235.9169921875 743.5" stroke-miterlimit="10"/></g></g><g transform="translate(2,-342) scale(1,1)"><g><path fill="none" stroke="none"/><text fill="#000000" stroke="none" font-family="Arial" font-size="13px" font-style="normal" font-weight="normal" text-decoration="none" x="13" y="758.5">+groundtruth([max_stamp_delta]): GroundTruth</text></g></g><g transform="translate(2,-342) scale(1,1)"><g><path fill="none" stroke="none"/><text fill="#000000" stroke="none" font-family="Arial" font-size="13px" font-style="normal" font-weight="normal" text-decoration="none" x="13" y="773.5">+stereo(shutter): StereoImage</text></g></g><g transform="translate(2,-342) scale(1,1)"><rect fill="#C0C0C0" stroke="none" x="727" y="359" width="307.07958984375" height="160" opacity="0.2"/></g><g transform="translate(2,-342) scale(1,1)"><rect fill="#ffffff" stroke="none" x="720" y="352" width="307.07958984375" height="160"/></g><g transform="translate(2,-342) scale(1,1)"><path fill="none" stroke="#000000" d="M 720 352 L 1027.07958984375 352 L 1027.07958984375 512 L 720 512 L 720 352 Z Z" stroke-miterlimit="10"/></g><g transform="translate(2,-342) scale(1,1)"><path fill="none" stroke="#000000" d="M 720 377 L 1027.07958984375 377" stroke-miterlimit="10"/></g><g transform="translate(2,-342) scale(1,1)"><path fill="none" stroke="#000000" d="M 720 490 L 1027.07958984375 490" stroke-miterlimit="10"/></g><g transform="translate(2,-342) scale(1,1)"><g><path fill="none" stroke="none"/><text fill="#000000" stroke="none" font-family="Arial" font-size="13px" font-style="normal" font-weight="bold" text-decoration="none" x="836.323486328125" y="371.5">StereoImage</text></g></g><g transform="translate(2,-342) scale(1,1)"><g><path fill="none" stroke="none"/><text fill="#000000" stroke="none" font-family="Arial" font-size="13px" font-style="normal" font-weight="normal" text-decoration="none" x="725" y="394.5">+exposure: float</text></g></g><g transform="translate(2,-342) scale(1,1)"><g><path fill="none" stroke="none"/><text fill="#000000" stroke="none" font-family="Arial" font-size="13px" font-style="normal" font-weight="normal" text-decoration="none" x="725" y="409.5">+ID: int</text></g></g><g transform="translate(2,-342) scale(1,1)"><g><path fill="none" stroke="none"/><text fill="#000000" stroke="none" font-family="Arial" font-size="13px" font-style="normal" font-weight="normal" text-decoration="none" x="725" y="424.5">+illuminance: float</text></g></g><g transform="translate(2,-342) scale(1,1)"><g><path fill="none" stroke="none"/><text fill="#000000" stroke="none" font-family="Arial" font-size="13px" font-style="normal" font-weight="normal" text-decoration="none" x="725" y="439.5">+imu: Imu</text></g></g><g transform="translate(2,-342) scale(1,1)"><g><path fill="none" stroke="none"/><text fill="#000000" stroke="none" font-family="Arial" font-size="13px" font-style="normal" font-weight="normal" text-decoration="none" x="725" y="454.5">+L: Image</text></g></g><g transform="translate(2,-342) scale(1,1)"><g><path fill="none" stroke="none"/><text fill="#000000" stroke="none" font-family="Arial" font-size="13px" font-style="normal" font-weight="normal" text-decoration="none" x="725" y="469.5">+R: Image</text></g></g><g transform="translate(2,-342) scale(1,1)"><g><path fill="none" stroke="none"/><text fill="#000000" stroke="none" font-family="Arial" font-size="13px" font-style="normal" font-weight="normal" text-decoration="none" x="725" y="484.5">+resolution: 2x1</text></g></g><g transform="translate(2,-342) scale(1,1)"><g><path fill="none" stroke="none"/><text fill="#000000" stroke="none" font-family="Arial" font-size="13px" font-style="normal" font-weight="normal" text-decoration="none" x="725" y="507.5">+extrapolate(value, shutter[, method]): StereoImage</text><path fill="none" stroke="#000000" d="M 725 507.5 L 1023.07958984375 507.5" stroke-miterlimit="10"/></g></g><g transform="translate(2,-342) scale(1,1)"><rect fill="#C0C0C0" stroke="none" x="855" y="583" width="176" height="235" opacity="0.2"/></g><g transform="translate(2,-342) scale(1,1)"><rect fill="#ffffff" stroke="none" x="848" y="576" width="176" height="235"/></g><g transform="translate(2,-342) scale(1,1)"><path fill="none" stroke="#000000" d="M 848 576 L 1024 576 L 1024 811 L 848 811 L 848 576 Z Z" stroke-miterlimit="10"/></g><g transform="translate(2,-342) scale(1,1)"><path fill="none" stroke="#000000" d="M 848 601 L 1024 601" stroke-miterlimit="10"/></g><g transform="translate(2,-342) scale(1,1)"><path fill="none" stroke="#000000" d="M 848 759 L 1024 759" stroke-miterlimit="10"/></g><g transform="translate(2,-342) scale(1,1)"><g><path fill="none" stroke="none"/><text fill="#000000" stroke="none" font-family="Arial" font-size="13px" font-style="normal" font-weight="bold" text-decoration="none" x="917.9345703125" y="595.5">Image</text></g></g><g transform="translate(2,-342) scale(1,1)"><g><path fill="none" stroke="none"/><text fill="#000000" stroke="none" font-family="Arial" font-size="13px" font-style="normal" font-weight="normal" text-decoration="none" x="853" y="618.5">+exposure: float</text></g></g><g transform="translate(2,-342) scale(1,1)"><g><path fill="none" stroke="none"/><text fill="#000000" stroke="none" font-family="Arial" font-size="13px" font-style="normal" font-weight="normal" text-decoration="none" x="853" y="633.5">+ID: int</text></g></g><g transform="translate(2,-342) scale(1,1)"><g><path fill="none" stroke="none"/><text fill="#000000" stroke="none" font-family="Arial" font-size="13px" font-style="normal" font-weight="normal" text-decoration="none" x="853" y="648.5">+focal: 2x1</text></g></g><g transform="translate(2,-342) scale(1,1)"><g><path fill="none" stroke="none"/><text fill="#000000" stroke="none" font-family="Arial" font-size="13px" font-style="normal" font-weight="normal" text-decoration="none" x="853" y="663.5">+illuminance: float</text></g></g><g transform="translate(2,-342) scale(1,1)"><g><path fill="none" stroke="none"/><text fill="#000000" stroke="none" font-family="Arial" font-size="13px" font-style="normal" font-weight="normal" text-decoration="none" x="853" y="678.5">+imu: Imu</text></g></g><g transform="translate(2,-342) scale(1,1)"><g><path fill="none" stroke="none"/><text fill="#000000" stroke="none" font-family="Arial" font-size="13px" font-style="normal" font-weight="normal" text-decoration="none" x="853" y="693.5">+K: 3x3</text></g></g><g transform="translate(2,-342) scale(1,1)"><g><path fill="none" stroke="none"/><text fill="#000000" stroke="none" font-family="Arial" font-size="13px" font-style="normal" font-weight="normal" text-decoration="none" x="853" y="708.5">+opposite: Image</text></g></g><g transform="translate(2,-342) scale(1,1)"><g><path fill="none" stroke="none"/><text fill="#000000" stroke="none" font-family="Arial" font-size="13px" font-style="normal" font-weight="normal" text-decoration="none" x="853" y="723.5">+path: string</text></g></g><g transform="translate(2,-342) scale(1,1)"><g><path fill="none" stroke="none"/><text fill="#000000" stroke="none" font-family="Arial" font-size="13px" font-style="normal" font-weight="normal" text-decoration="none" x="853" y="738.5">+shutter: string</text></g></g><g transform="translate(2,-342) scale(1,1)"><g><path fill="none" stroke="none"/><text fill="#000000" stroke="none" font-family="Arial" font-size="13px" font-style="normal" font-weight="normal" text-decoration="none" x="853" y="753.5">+resolution: 2x1</text></g></g><g transform="translate(2,-342) scale(1,1)"><g><path fill="none" stroke="none"/><text fill="#000000" stroke="none" font-family="Arial" font-size="13px" font-style="normal" font-weight="normal" text-decoration="none" x="853" y="776.5">+groundtruth(): GroundTruth</text></g></g><g transform="translate(2,-342) scale(1,1)"><g><path fill="none" stroke="none"/><text fill="#000000" stroke="none" font-family="Arial" font-size="13px" font-style="normal" font-weight="normal" text-decoration="none" x="853" y="791.5">+distortion(model): float</text></g></g><g transform="translate(2,-342) scale(1,1)"><g><path fill="none" stroke="none"/><text fill="#000000" stroke="none" font-family="Arial" font-size="13px" font-style="normal" font-weight="normal" text-decoration="none" x="853" y="806.5">+load(): 1280x1024</text></g></g><g transform="translate(2,-342) scale(1,1)"><path fill="none" stroke="#000000" d="M 848 736 L 752 736 L 752 768 L 848 768" stroke-miterlimit="10"/></g><g transform="translate(2,-342) scale(1,1)"><path fill="#000000" stroke="none" d="M 837.8373251423759 772.209517756016 L 848 768 L 837.8373251423758 763.790482243984 L 826 768"/></g><g transform="translate(2,-342) scale(1,1)"><path fill="none" stroke="#000000" d="M 837.8373251423759 772.209517756016 L 848 768 L 837.8373251423758 763.790482243984 L 826 768 L 837.8373251423759 772.209517756016" stroke-miterlimit="10"/></g><g transform="translate(2,-342) scale(1,1)"><g><path fill="none" stroke="none"/><text fill="#000000" stroke="none" font-family="Arial" font-size="13px" font-style="normal" font-weight="normal" text-decoration="none" x="773.5" y="731.5">+opposite</text></g></g><g transform="translate(2,-342) scale(1,1)"><path fill="none" stroke="#000000" d="M 719 399 Q 648 384 577 393" stroke-miterlimit="10"/></g><g transform="translate(2,-342) scale(1,1)"><path fill="#FFFFFF" stroke="none" d="M 596.105265719143 382.0918002493106 L 577 393 L 598.2227249606268 398.796200932127"/></g><g transform="translate(2,-342) scale(1,1)"><path fill="none" stroke="#000000" d="M 596.105265719143 382.0918002493106 L 577 393 L 598.2227249606268 398.796200932127 L 596.105265719143 382.0918002493106" stroke-miterlimit="10"/></g><g transform="translate(2,-342) scale(1,1)"><path fill="none" stroke="#000000" d="M 943 575 Q 944 552 921 513" stroke-miterlimit="10"/></g><g transform="translate(2,-342) scale(1,1)"><path fill="#000000" stroke="none" d="M 929.7884216549585 519.6154096482876 L 921 513 L 922.5365515255168 523.892153570779 L 932.1756704387744 531.9500498744437"/></g><g transform="translate(2,-342) scale(1,1)"><path fill="none" stroke="#000000" d="M 929.7884216549585 519.6154096482876 L 921 513 L 922.5365515255168 523.892153570779 L 932.1756704387744 531.9500498744437 L 929.7884216549585 519.6154096482876" stroke-miterlimit="10"/></g><g transform="translate(2,-342) scale(1,1)"><g><path fill="none" stroke="none"/><text fill="#000000" stroke="none" font-family="Arial" font-size="13px" font-style="normal" font-weight="normal" text-decoration="none" x="907.5" y="573.5">+L R</text></g></g><g transform="translate(2,-342) scale(1,1)"><rect fill="#C0C0C0" stroke="none" x="359" y="519" width="184" height="264" opacity="0.2"/></g><g transform="translate(2,-342) scale(1,1)"><rect fill="#ffffff" stroke="none" x="352" y="512" width="184" height="264"/></g><g transform="translate(2,-342) scale(1,1)"><path fill="none" stroke="#000000" d="M 352 512 L 536 512 L 536 776 L 352 776 L 352 512 Z Z" stroke-miterlimit="10"/></g><g transform="translate(2,-342) scale(1,1)"><path fill="none" stroke="#000000" d="M 352 537 L 536 537" stroke-miterlimit="10"/></g><g transform="translate(2,-342) scale(1,1)"><path fill="none" stroke="#000000" d="M 352 695 L 536 695" stroke-miterlimit="10"/></g><g transform="translate(2,-342) scale(1,1)"><g><path fill="none" stroke="none"/><text fill="#000000" stroke="none" font-family="Arial" font-size="13px" font-style="normal" font-weight="bold" text-decoration="none" x="414.724609375" y="531.5">Sequence</text></g></g><g transform="translate(2,-342) scale(1,1)"><g><path fill="none" stroke="none"/><text fill="#000000" stroke="none" font-family="Arial" font-size="13px" font-style="normal" font-weight="normal" text-decoration="none" x="357" y="554.5">+duration: float</text></g></g><g transform="translate(2,-342) scale(1,1)"><g><path fill="none" stroke="none"/><text fill="#000000" stroke="none" font-family="Arial" font-size="13px" font-style="normal" font-weight="normal" text-decoration="none" x="357" y="569.5">+start: float</text></g></g><g transform="translate(2,-342) scale(1,1)"><g><path fill="none" stroke="none"/><text fill="#000000" stroke="none" font-family="Arial" font-size="13px" font-style="normal" font-weight="normal" text-decoration="none" x="357" y="584.5">+end: float</text></g></g><g transform="translate(2,-342) scale(1,1)"><g><path fill="none" stroke="none"/><text fill="#000000" stroke="none" font-family="Arial" font-size="13px" font-style="normal" font-weight="normal" text-decoration="none" x="357" y="599.5">+exposure_limits: 2x1</text></g></g><g transform="translate(2,-342) scale(1,1)"><g><path fill="none" stroke="none"/><text fill="#000000" stroke="none" font-family="Arial" font-size="13px" font-style="normal" font-weight="normal" text-decoration="none" x="357" y="614.5">+imu: Iterable</text></g></g><g transform="translate(2,-342) scale(1,1)"><g><path fill="none" stroke="none"/><text fill="#000000" stroke="none" font-family="Arial" font-size="13px" font-style="normal" font-weight="normal" text-decoration="none" x="357" y="629.5">+mocap: Iterable</text></g></g><g transform="translate(2,-342) scale(1,1)"><g><path fill="none" stroke="none"/><text fill="#000000" stroke="none" font-family="Arial" font-size="13px" font-style="normal" font-weight="normal" text-decoration="none" x="357" y="644.5">+raw</text></g></g><g transform="translate(2,-342) scale(1,1)"><g><path fill="none" stroke="none"/><text fill="#000000" stroke="none" font-family="Arial" font-size="13px" font-style="normal" font-weight="normal" text-decoration="none" x="357" y="659.5">+resolution: 2x1</text></g></g><g transform="translate(2,-342) scale(1,1)"><g><path fill="none" stroke="none"/><text fill="#000000" stroke="none" font-family="Arial" font-size="13px" font-style="normal" font-weight="normal" text-decoration="none" x="357" y="674.5">+rolling_shutter_speed: float</text></g></g><g transform="translate(2,-342) scale(1,1)"><g><path fill="none" stroke="none"/><text fill="#000000" stroke="none" font-family="Arial" font-size="13px" font-style="normal" font-weight="normal" text-decoration="none" x="357" y="689.5">+stereosync: bool</text></g></g><g transform="translate(2,-342) scale(1,1)"><g><path fill="none" stroke="none"/><text fill="#000000" stroke="none" font-family="Arial" font-size="13px" font-style="normal" font-weight="normal" text-decoration="none" x="357" y="712.5">+cameras([shutter]): Iterable</text></g></g><g transform="translate(2,-342) scale(1,1)"><g><path fill="none" stroke="none"/><text fill="#000000" stroke="none" font-family="Arial" font-size="13px" font-style="normal" font-weight="normal" text-decoration="none" x="357" y="727.5">+gamma(cam, input): float</text></g></g><g transform="translate(2,-342) scale(1,1)"><g><path fill="none" stroke="none"/><text fill="#000000" stroke="none" font-family="Arial" font-size="13px" font-style="normal" font-weight="normal" text-decoration="none" x="357" y="742.5">+vignette(cam): 1280x1024</text></g></g><g transform="translate(2,-342) scale(1,1)"><rect fill="#C0C0C0" stroke="none" x="583" y="711" width="136" height="48" opacity="0.2"/></g><g transform="translate(2,-342) scale(1,1)"><rect fill="#ffffff" stroke="none" x="576" y="704" width="136" height="48"/></g><g transform="translate(2,-342) scale(1,1)"><path fill="none" stroke="#000000" d="M 576 704 L 712 704 L 712 752 L 576 752 L 576 704 Z Z" stroke-miterlimit="10"/></g><g transform="translate(2,-342) scale(1,1)"><path fill="none" stroke="#000000" d="M 576 729 L 712 729" stroke-miterlimit="10"/></g><g transform="translate(2,-342) scale(1,1)"><path fill="none" stroke="#000000" d="M 576 739 L 712 739" stroke-miterlimit="10"/></g><g transform="translate(2,-342) scale(1,1)"><g><path fill="none" stroke="none"/><text fill="#000000" stroke="none" font-family="Arial" font-size="13px" font-style="normal" font-weight="bold" text-decoration="none" x="601.73095703125" y="723.5">StereoCamera</text></g></g><g transform="translate(2,-342) scale(1,1)"><path fill="#C0C0C0" stroke="none" d="M 634.880859375 522.5 C 634.880859375 516.1487248 640.029584175 511 646.380859375 511 C 652.732134575 511 657.880859375 516.1487248 657.880859375 522.5 C 657.880859375 528.8512752 652.732134575 534 646.380859375 534 C 640.029584175 534 634.880859375 528.8512752 634.880859375 522.5 Z" opacity="0.2"/></g><g transform="translate(2,-342) scale(1,1)"><path fill="#ffffff" stroke="none" d="M 627.880859375 515.5 C 627.880859375 509.1487248 633.029584175 504 639.380859375 504 C 645.732134575 504 650.880859375 509.1487248 650.880859375 515.5 C 650.880859375 521.8512752 645.732134575 527 639.380859375 527 C 633.029584175 527 627.880859375 521.8512752 627.880859375 515.5 Z"/></g><g transform="translate(2,-342) scale(1,1)"><path fill="none" stroke="#000000" d="M 627.880859375 515.5 C 627.880859375 509.1487248 633.029584175 504 639.380859375 504 C 645.732134575 504 650.880859375 509.1487248 650.880859375 515.5 C 650.880859375 521.8512752 645.732134575 527 639.380859375 527 C 633.029584175 527 627.880859375 521.8512752 627.880859375 515.5 Z" stroke-miterlimit="10"/></g><g transform="translate(2,-342) scale(1,1)"><g><path fill="none" stroke="none"/><text fill="#000000" stroke="none" font-family="Arial" font-size="13px" font-style="normal" font-weight="bold" text-decoration="none" x="585.54638671875" y="546.5">collections.Iterable</text></g></g><g transform="translate(2,-342) scale(1,1)"><rect fill="#C0C0C0" stroke="none" x="583" y="631" width="136" height="44" opacity="0.2"/></g><g transform="translate(2,-342) scale(1,1)"><rect fill="#ffffff" stroke="none" x="576" y="624" width="136" height="44"/></g><g transform="translate(2,-342) scale(1,1)"><path fill="none" stroke="#000000" d="M 576 624 L 712 624 L 712 668 L 576 668 L 576 624 Z Z" stroke-miterlimit="10"/></g><g transform="translate(2,-342) scale(1,1)"><path fill="none" stroke="#000000" d="M 576 649 L 712 649" stroke-miterlimit="10"/></g><g transform="translate(2,-342) scale(1,1)"><path fill="none" stroke="#000000" d="M 576 659 L 712 659" stroke-miterlimit="10"/></g><g transform="translate(2,-342) scale(1,1)"><g><path fill="none" stroke="none"/><text fill="#000000" stroke="none" font-family="Arial" font-size="13px" font-style="normal" font-weight="bold" text-decoration="none" x="589.806884765625" y="643.5">DuoStereoCamera</text></g></g><g transform="translate(2,-342) scale(1,1)"><path fill="none" stroke="#000000" d="M 643 623 L 640 553" stroke-miterlimit="10"/></g><g transform="translate(2,-342) scale(1,1)"><path fill="#FFFFFF" stroke="none" d="M 649.2816019187248 572.9462243500449 L 640 553 L 632.4589731600195 573.6671941539894"/></g><g transform="translate(2,-342) scale(1,1)"><path fill="none" stroke="#000000" d="M 649.2816019187248 572.9462243500449 L 640 553 L 632.4589731600195 573.6671941539894 L 649.2816019187248 572.9462243500449" stroke-miterlimit="10"/></g><g transform="translate(2,-342) scale(1,1)"><path fill="none" stroke="#000000" d="M 575 645 L 537 645" stroke-miterlimit="10"/></g><g transform="translate(2,-342) scale(1,1)"><path fill="none" stroke="#000000" d="M 537 683 L 584 703" stroke-miterlimit="10"/></g><g transform="translate(2,-342) scale(1,1)"><path fill="none" stroke="#000000" d="M 791 513 Q 768 536 768 576 Q 768 616 713 629" stroke-miterlimit="10"/></g><g transform="translate(2,-342) scale(1,1)"><path fill="#000000" stroke="none" d="M 721.9218625634398 622.5656881953786 L 713 629 L 723.8584550287392 630.7589640101063 L 734.410061481081 623.9394400135627"/></g><g transform="translate(2,-342) scale(1,1)"><path fill="none" stroke="#000000" d="M 721.9218625634398 622.5656881953786 L 713 629 L 723.8584550287392 630.7589640101063 L 734.410061481081 623.9394400135627 L 721.9218625634398 622.5656881953786" stroke-miterlimit="10"/></g><g transform="translate(2,-342) scale(1,1)"><g><path fill="none" stroke="none"/><text fill="#ffffff" stroke="none" font-family="Arial" font-size="13px" font-style="normal" font-weight="normal" text-decoration="none" x="773.13134765625" y="572.5">-Iterator</text></g></g><g transform="translate(2,-342) scale(1,1)"><g><path fill="none" stroke="none"/><text fill="#000000" stroke="none" font-family="Arial" font-size="13px" font-style="normal" font-weight="normal" text-decoration="none" x="727.5" y="617.5">2</text></g></g><g transform="translate(2,-342) scale(1,1)"><path fill="none" stroke="#000000" d="M 847 635 Q 744 568 704 512 Q 664 456 612 468 Q 560 480 539 453" stroke-miterlimit="10"/></g><g transform="translate(2,-342) scale(1,1)"><path fill="#FFFFFF" stroke="none" d="M 558.1241420236773 463.87507203921973 L 539 453 L 544.8329733244924 474.21264769414137"/></g><g transform="translate(2,-342) scale(1,1)"><path fill="none" stroke="#000000" d="M 558.1241420236773 463.87507203921973 L 539 453 L 544.8329733244924 474.21264769414137 L 558.1241420236773 463.87507203921973" stroke-miterlimit="10"/></g></g></svg>