<?xml version="1.0" encoding="UTF-8" standalone="no"?>
<svg
   xmlns:dc="http://purl.org/dc/elements/1.1/"
   xmlns:cc="http://creativecommons.org/ns#"
   xmlns:rdf="http://www.w3.org/1999/02/22-rdf-syntax-ns#"
   xmlns:svg="http://www.w3.org/2000/svg"
   xmlns="http://www.w3.org/2000/svg"
   xmlns:sodipodi="http://sodipodi.sourceforge.net/DTD/sodipodi-0.dtd"
   xmlns:inkscape="http://www.inkscape.org/namespaces/inkscape"
   style="font-style:normal;font-weight:normal;font-size:12px;font-family:Dialog;color-interpolation:auto;fill:#000000;fill-opacity:1;stroke:#000000;stroke-width:1;stroke-linecap:square;stroke-linejoin:miter;stroke-miterlimit:10;stroke-dasharray:none;stroke-dashoffset:0;stroke-opacity:1;color-rendering:auto;image-rendering:auto;shape-rendering:auto;text-rendering:auto"
   width="1016"
   height="469.52731"
   version="1.1"
   id="svg4369"
   sodipodi:docname="interpolation-linear.svg"
   inkscape:version="0.92.0 r15299">
  <metadata
     id="metadata4373">
    <rdf:RDF>
      <cc:Work
         rdf:about="">
        <dc:format>image/svg+xml</dc:format>
        <dc:type
           rdf:resource="http://purl.org/dc/dcmitype/StillImage" />
        <dc:title></dc:title>
      </cc:Work>
    </rdf:RDF>
  </metadata>
  <sodipodi:namedview
     pagecolor="#ffffff"
     bordercolor="#666666"
     borderopacity="1"
     objecttolerance="10"
     gridtolerance="10"
     guidetolerance="10"
     inkscape:pageopacity="0"
     inkscape:pageshadow="2"
     inkscape:window-width="1920"
     inkscape:window-height="1001"
     id="namedview4371"
     showgrid="false"
     inkscape:zoom="0.98994949"
     inkscape:cx="456.44961"
     inkscape:cy="214.17822"
     inkscape:window-x="-9"
     inkscape:window-y="-9"
     inkscape:window-maximized="1"
     inkscape:current-layer="svg4369"
     fit-margin-top="15"
     fit-margin-left="20"
     fit-margin-right="20"
     fit-margin-bottom="15" />
  <!--Generated by the Batik Graphics2D SVG Generator-->
  <defs
     id="genericDefs">
    <marker
       inkscape:stockid="Arrow2Lend"
       orient="auto"
       refY="0"
       refX="0"
       id="marker5562"
       style="overflow:visible"
       inkscape:isstock="true">
      <path
         id="path5560"
         style="fill:#000000;fill-opacity:1;fill-rule:evenodd;stroke:#000000;stroke-width:0.625;stroke-linejoin:round;stroke-opacity:1"
         d="M 8.7185878,4.0337352 -2.2072895,0.01601326 8.7185884,-4.0017078 c -1.7454984,2.3720609 -1.7354408,5.6174519 -6e-7,8.035443 z"
         transform="matrix(-1.1,0,0,-1.1,-1.1,0)"
         inkscape:connector-curvature="0" />
    </marker>
    <marker
       inkscape:stockid="Arrow2Lstart"
       orient="auto"
       refY="0"
       refX="0"
       id="Arrow2Lstart"
       style="overflow:visible"
       inkscape:isstock="true">
      <path
         id="path5226"
         style="fill:#000000;fill-opacity:1;fill-rule:evenodd;stroke:#000000;stroke-width:0.625;stroke-linejoin:round;stroke-opacity:1"
         d="M 8.7185878,4.0337352 -2.2072895,0.01601326 8.7185884,-4.0017078 c -1.7454984,2.3720609 -1.7354408,5.6174519 -6e-7,8.035443 z"
         transform="matrix(1.1,0,0,1.1,1.1,0)"
         inkscape:connector-curvature="0" />
    </marker>
    <marker
       inkscape:stockid="Arrow2Lend"
       orient="auto"
       refY="0"
       refX="0"
       id="Arrow2Lend"
       style="overflow:visible"
       inkscape:isstock="true">
      <path
         id="path5229"
         style="fill:#000000;fill-opacity:1;fill-rule:evenodd;stroke:#000000;stroke-width:0.625;stroke-linejoin:round;stroke-opacity:1"
         d="M 8.7185878,4.0337352 -2.2072895,0.01601326 8.7185884,-4.0017078 c -1.7454984,2.3720609 -1.7354408,5.6174519 -6e-7,8.035443 z"
         transform="matrix(-1.1,0,0,-1.1,-1.1,0)"
         inkscape:connector-curvature="0" />
    </marker>
    <marker
       inkscape:stockid="Arrow1Lstart"
       orient="auto"
       refY="0"
       refX="0"
       id="Arrow1Lstart"
       style="overflow:visible"
       inkscape:isstock="true">
      <path
         id="path5208"
         d="M 0,0 5,-5 -12.5,0 5,5 Z"
         style="fill:#000000;fill-opacity:1;fill-rule:evenodd;stroke:#000000;stroke-width:1.00000003pt;stroke-opacity:1"
         transform="matrix(0.8,0,0,0.8,10,0)"
         inkscape:connector-curvature="0" />
    </marker>
  </defs>
  <g
     id="g4367"
     transform="translate(-144,-19.989967)">
    <defs
       id="defs1">
      <clipPath
         clipPathUnits="userSpaceOnUse"
         id="clipPath1">
        <path
           d="M 0,0 H 1260 V 525 H 0 Z"
           id="path4303"
           inkscape:connector-curvature="0" />
      </clipPath>
    </defs>
    <g
       style="color-interpolation:linearRGB;fill:#262626;stroke:#262626;stroke-width:0.83329999;stroke-linecap:butt;stroke-linejoin:round;color-rendering:optimizeQuality;image-rendering:optimizeQuality;text-rendering:geometricPrecision"
       id="g4317">
      <line
         y2="467"
         style="fill:none"
         x1="164"
         x2="1140"
         y1="467"
         id="line4315" />
    </g>
    <g
       transform="translate(286,352.8667)"
       style="color-interpolation:linearRGB;fill:#0000ff;stroke:#0000ff;color-rendering:optimizeQuality;image-rendering:optimizeQuality;text-rendering:geometricPrecision"
       id="g4321">
      <circle
         r="5"
         style="stroke:none"
         cx="-0.5"
         cy="-0.5"
         id="circle4319" />
    </g>
    <g
       transform="translate(286,352.8667)"
       style="color-interpolation:linearRGB;fill:#0000ff;stroke:#0000ff;stroke-width:2.5;stroke-linecap:butt;color-rendering:optimizeQuality;image-rendering:optimizeQuality;text-rendering:geometricPrecision"
       id="g4325">
      <circle
         r="5"
         style="fill:none"
         cx="-0.5"
         cy="-0.5"
         id="circle4323" />
    </g>
    <g
       transform="translate(530,181.6667)"
       style="color-interpolation:linearRGB;fill:#0000ff;stroke:#0000ff;color-rendering:optimizeQuality;image-rendering:optimizeQuality;text-rendering:geometricPrecision"
       id="g4329">
      <circle
         r="5"
         style="stroke:none"
         cx="-0.5"
         cy="-0.5"
         id="circle4327" />
    </g>
    <g
       transform="translate(530,181.6667)"
       style="color-interpolation:linearRGB;fill:#0000ff;stroke:#0000ff;stroke-width:2.5;stroke-linecap:butt;color-rendering:optimizeQuality;image-rendering:optimizeQuality;text-rendering:geometricPrecision"
       id="g4333">
      <circle
         r="5"
         style="fill:none"
         cx="-0.5"
         cy="-0.5"
         id="circle4331" />
    </g>
    <g
       transform="translate(774,110.3333)"
       style="color-interpolation:linearRGB;fill:#0000ff;stroke:#0000ff;color-rendering:optimizeQuality;image-rendering:optimizeQuality;text-rendering:geometricPrecision"
       id="g4337">
      <circle
         r="5"
         style="stroke:none"
         cx="-0.5"
         cy="-0.5"
         id="circle4335" />
    </g>
    <g
       transform="translate(774,110.3333)"
       style="color-interpolation:linearRGB;fill:#0000ff;stroke:#0000ff;stroke-width:2.5;stroke-linecap:butt;color-rendering:optimizeQuality;image-rendering:optimizeQuality;text-rendering:geometricPrecision"
       id="g4341">
      <circle
         r="5"
         style="fill:none"
         cx="-0.5"
         cy="-0.5"
         id="circle4339" />
    </g>
    <g
       transform="translate(1018,81.8)"
       style="color-interpolation:linearRGB;fill:#0000ff;stroke:#0000ff;color-rendering:optimizeQuality;image-rendering:optimizeQuality;text-rendering:geometricPrecision"
       id="g4345">
      <circle
         r="5"
         style="stroke:none"
         cx="-0.5"
         cy="-0.5"
         id="circle4343" />
    </g>
    <g
       transform="translate(1018,81.8)"
       style="color-interpolation:linearRGB;fill:#0000ff;stroke:#0000ff;stroke-width:2.5;stroke-linecap:butt;color-rendering:optimizeQuality;image-rendering:optimizeQuality;text-rendering:geometricPrecision"
       id="g4361">
      <circle
         r="5"
         style="fill:none"
         cx="-0.5"
         cy="-0.5"
         id="circle4347" />
      <line
         transform="translate(-1018,-81.8)"
         x1="286"
         x2="286"
         y1="467"
         style="fill:none;stroke-linejoin:round"
         y2="352.8667"
         id="line4349" />
      <line
         transform="translate(-1018,-81.8)"
         x1="530"
         x2="530"
         y1="467"
         style="fill:none;stroke-linejoin:round"
         y2="181.6667"
         id="line4351" />
      <line
         transform="translate(-1018,-81.8)"
         x1="774"
         x2="774"
         y1="467"
         style="fill:none;stroke-linejoin:round"
         y2="110.3333"
         id="line4353" />
      <line
         transform="translate(-1018,-81.8)"
         x1="1018"
         x2="1018"
         y1="467"
         style="fill:none;stroke-linejoin:round"
         y2="81.800003"
         id="line4355" />
      <circle
         transform="translate(-317.2,49.9334)"
         style="fill:none;stroke:#ff0000"
         r="5"
         cx="-0.5"
         cy="-0.5"
         id="circle4357" />
      <line
         transform="translate(-1018,-81.8)"
         x1="700.79999"
         x2="700.79999"
         y1="467"
         style="fill:none;stroke:#ff0000;stroke-linejoin:round"
         y2="131.7334"
         id="line4359" />
    </g>
    <g
       style="color-interpolation:linearRGB;fill:#0000ff;stroke:#0000ff;stroke-width:0.83329999;stroke-linecap:butt;stroke-linejoin:bevel;stroke-miterlimit:1;stroke-dasharray:10, 6;color-rendering:optimizeQuality;image-rendering:optimizeQuality;text-rendering:geometricPrecision"
       id="g4365">
      <path
         d="m 530,181.6667 2.4647,-0.7206 2.4646,-0.7205 2.4646,-0.7205 2.4647,-0.7206 2.4646,-0.7205 2.4646,-0.7206 2.4647,-0.7205 2.4647,-0.7206 2.4646,-0.7205 2.4647,-0.7205 2.4646,-0.7206 2.4646,-0.7205 2.4647,-0.7205 2.4647,-0.7206 2.4646,-0.7205 2.4646,-0.7206 2.4647,-0.7205 2.4646,-0.7205 2.4647,-0.7206 2.4646,-0.7205 2.4647,-0.7205 2.4646,-0.7206 2.4647,-0.7205 2.4646,-0.7206 2.4646,-0.7205 2.4647,-0.7205 2.4647,-0.7206 2.4646,-0.7205 2.4646,-0.7205 2.4647,-0.7206 2.4647,-0.7205 2.4646,-0.7206 2.4646,-0.7205 2.4647,-0.7205 2.4646,-0.7206 2.4647,-0.7205 2.4646,-0.7206 2.4647,-0.7205 2.4646,-0.7206 2.4647,-0.7205 2.4646,-0.7205 2.4646,-0.7206 2.4647,-0.7205 2.4647,-0.7205 2.4646,-0.7206 2.4646,-0.7205 2.4647,-0.7206 2.4646,-0.7205 2.4646,-0.7205 2.4648,-0.7206 2.4646,-0.7205 2.4646,-0.7205 2.4647,-0.7206 2.4646,-0.7205 2.4646,-0.7206 2.4647,-0.7205 2.4647,-0.7205 2.4646,-0.7206 2.4646,-0.7205 2.4647,-0.7205 2.4646,-0.7206 2.4647,-0.7205 2.4646,-0.7206 2.4647,-0.7205 2.4646,-0.7206 2.4647,-0.7205 2.4646,-0.7205 2.4646,-0.7206 2.4647,-0.7205 2.4647,-0.7206 2.4646,-0.7205 2.4646,-0.7205 2.4647,-0.7206 2.4647,-0.7205 2.4646,-0.7206 2.4646,-0.7205 2.4647,-0.7205 2.4646,-0.7206 2.4647,-0.7205 2.4646,-0.7205 2.4647,-0.7206 2.4646,-0.7205 2.4647,-0.7205 2.4646,-0.7206 2.4646,-0.7205 2.4647,-0.7206 2.4647,-0.7205 2.4646,-0.7205 2.4646,-0.7206 2.4647,-0.7205 2.4646,-0.7206 2.4647,-0.7205 2.4647,-0.7205 2.4646,-0.7206 2.4646,-0.7205 2.4647,-0.7206 2.4646,-0.7205 2.4646,-0.7205 2.4647,-0.7206"
         style="fill:none;fill-rule:evenodd"
         id="path4363"
         inkscape:connector-curvature="0" />
    </g>
  </g>
  <text
     xml:space="preserve"
     style="font-style:normal;font-weight:normal;font-size:40px;line-height:25px;font-family:sans-serif;letter-spacing:0px;word-spacing:0px;fill:#000000;fill-opacity:1;stroke:none"
     x="402.51282"
     y="429.66479"
     id="text4377"><tspan
       sodipodi:role="line"
       id="tspan4375"
       x="402.51282"
       y="429.66479">t = 0.7</tspan></text>
  <text
     xml:space="preserve"
     style="font-style:normal;font-weight:normal;font-size:40px;line-height:25px;font-family:sans-serif;letter-spacing:0px;word-spacing:0px;fill:#000000;fill-opacity:1;stroke:none"
     x="367.13721"
     y="141.35513"
     id="text4381"><tspan
       sodipodi:role="line"
       id="tspan4379"
       x="367.13721"
       y="141.35513">a</tspan></text>
  <text
     xml:space="preserve"
     style="font-style:normal;font-weight:normal;font-size:40px;line-height:25px;font-family:sans-serif;letter-spacing:0px;word-spacing:0px;fill:#000000;fill-opacity:1;stroke:none"
     x="617.65497"
     y="69.634285"
     id="text4385"><tspan
       sodipodi:role="line"
       id="tspan4383"
       x="617.65497"
       y="69.634285">b</tspan></text>
  <text
     xml:space="preserve"
     style="font-style:normal;font-weight:normal;font-size:40px;line-height:25px;font-family:sans-serif;letter-spacing:0px;word-spacing:0px;fill:#000000;fill-opacity:1;stroke:none"
     x="540.88342"
     y="88.827179"
     id="text4389"><tspan
       sodipodi:role="line"
       id="tspan4387"
       x="540.88342"
       y="88.827179">x</tspan></text>
  <text
     xml:space="preserve"
     style="font-style:normal;font-weight:normal;font-size:40px;line-height:25px;font-family:sans-serif;letter-spacing:0px;word-spacing:0px;fill:#000000;fill-opacity:1;stroke:none"
     x="114.59903"
     y="310.0506"
     id="text4393"><tspan
       sodipodi:role="line"
       id="tspan4391"
       x="114.59903"
       y="310.0506">a0</tspan></text>
  <text
     xml:space="preserve"
     style="font-style:normal;font-weight:normal;font-size:40px;line-height:25px;font-family:sans-serif;letter-spacing:0px;word-spacing:0px;fill:#000000;fill-opacity:1;stroke:none"
     x="848.97998"
     y="45.390625"
     id="text4397"><tspan
       sodipodi:role="line"
       id="tspan4395"
       x="848.97998"
       y="45.390625">b0</tspan></text>
  <path
     style="fill:none;stroke:#000000;stroke-width:1.60000002;stroke-linecap:butt;stroke-linejoin:miter;stroke-miterlimit:10;stroke-dasharray:none;stroke-opacity:1;marker-start:url(#Arrow2Lstart);marker-end:url(#marker5562)"
     d="M 390.3707,446.87799 H 547.95449"
     id="path4401"
     inkscape:connector-curvature="0" />
</svg>
