<?xml version="1.0" encoding="UTF-8" standalone="no"?>
<!-- Created with Inkscape (http://www.inkscape.org/) -->

<svg
   xmlns:dc="http://purl.org/dc/elements/1.1/"
   xmlns:cc="http://creativecommons.org/ns#"
   xmlns:rdf="http://www.w3.org/1999/02/22-rdf-syntax-ns#"
   xmlns:svg="http://www.w3.org/2000/svg"
   xmlns="http://www.w3.org/2000/svg"
   xmlns:sodipodi="http://sodipodi.sourceforge.net/DTD/sodipodi-0.dtd"
   xmlns:inkscape="http://www.inkscape.org/namespaces/inkscape"
   version="1.1"
   id="svg4485"
   xml:space="preserve"
   width="660.0766"
   height="287.86102"
   viewBox="0 0 660.0766 287.86102"
   sodipodi:docname="camer-sync.svg"
   inkscape:version="0.92.0 r15299"><metadata
     id="metadata4491"><rdf:RDF><cc:Work
         rdf:about=""><dc:format>image/svg+xml</dc:format><dc:type
           rdf:resource="http://purl.org/dc/dcmitype/StillImage" /><dc:title></dc:title></cc:Work></rdf:RDF></metadata><defs
     id="defs4489"><clipPath
       clipPathUnits="userSpaceOnUse"
       id="clipPath4501"><path
         d="M 0,1.2207e-4 H 960 V 540.00012 H 0 Z"
         id="path4499"
         inkscape:connector-curvature="0"
         style="clip-rule:evenodd" /></clipPath><clipPath
       clipPathUnits="userSpaceOnUse"
       id="clipPath4571"><path
         d="M 1.4305e-5,0 H 960.00001 V 540 H 1.4305e-5 Z"
         id="path4569"
         inkscape:connector-curvature="0"
         style="clip-rule:evenodd" /></clipPath><clipPath
       clipPathUnits="userSpaceOnUse"
       id="clipPath4583"><path
         d="M 1.4305e-5,0 H 960.00001 V 540 H 1.4305e-5 Z"
         id="path4581"
         inkscape:connector-curvature="0"
         style="clip-rule:evenodd" /></clipPath><clipPath
       clipPathUnits="userSpaceOnUse"
       id="clipPath4595"><path
         d="M 1.4305e-5,0 H 960.00001 V 540 H 1.4305e-5 Z"
         id="path4593"
         inkscape:connector-curvature="0"
         style="clip-rule:evenodd" /></clipPath><clipPath
       clipPathUnits="userSpaceOnUse"
       id="clipPath4607"><path
         d="M 1.4305e-5,0 H 960.00001 V 540 H 1.4305e-5 Z"
         id="path4605"
         inkscape:connector-curvature="0"
         style="clip-rule:evenodd" /></clipPath><clipPath
       clipPathUnits="userSpaceOnUse"
       id="clipPath4619"><path
         d="M 1.4305e-5,0 H 960.00001 V 540 H 1.4305e-5 Z"
         id="path4617"
         inkscape:connector-curvature="0"
         style="clip-rule:evenodd" /></clipPath><clipPath
       clipPathUnits="userSpaceOnUse"
       id="clipPath4639"><path
         d="M 1.4305e-5,0 H 960.00001 V 540 H 1.4305e-5 Z"
         id="path4637"
         inkscape:connector-curvature="0"
         style="clip-rule:evenodd" /></clipPath><clipPath
       clipPathUnits="userSpaceOnUse"
       id="clipPath4651"><path
         d="M 1.4305e-5,0 H 960.00001 V 540 H 1.4305e-5 Z"
         id="path4649"
         inkscape:connector-curvature="0"
         style="clip-rule:evenodd" /></clipPath><clipPath
       clipPathUnits="userSpaceOnUse"
       id="clipPath4663"><path
         d="M 1.4305e-5,0 H 960.00001 V 540 H 1.4305e-5 Z"
         id="path4661"
         inkscape:connector-curvature="0"
         style="clip-rule:evenodd" /></clipPath><clipPath
       clipPathUnits="userSpaceOnUse"
       id="clipPath4675"><path
         d="M 1.4305e-5,0 H 960.00001 V 540 H 1.4305e-5 Z"
         id="path4673"
         inkscape:connector-curvature="0"
         style="clip-rule:evenodd" /></clipPath><clipPath
       clipPathUnits="userSpaceOnUse"
       id="clipPath4687"><path
         d="M 1.4305e-5,0 H 960.00001 V 540 H 1.4305e-5 Z"
         id="path4685"
         inkscape:connector-curvature="0"
         style="clip-rule:evenodd" /></clipPath><clipPath
       clipPathUnits="userSpaceOnUse"
       id="clipPath4699"><path
         d="M 1.4305e-5,0 H 960.00001 V 540 H 1.4305e-5 Z"
         id="path4697"
         inkscape:connector-curvature="0"
         style="clip-rule:evenodd" /></clipPath></defs><sodipodi:namedview
     pagecolor="#ffffff"
     bordercolor="#666666"
     borderopacity="1"
     objecttolerance="10"
     gridtolerance="10"
     guidetolerance="10"
     inkscape:pageopacity="0"
     inkscape:pageshadow="2"
     inkscape:window-width="1920"
     inkscape:window-height="1001"
     id="namedview4487"
     showgrid="false"
     fit-margin-top="10"
     fit-margin-left="10"
     fit-margin-right="10"
     fit-margin-bottom="10"
     inkscape:zoom="0.76013979"
     inkscape:cx="548.74514"
     inkscape:cy="333.70184"
     inkscape:window-x="-9"
     inkscape:window-y="-9"
     inkscape:window-maximized="1"
     inkscape:current-layer="g4493" /><g
     id="g4493"
     inkscape:groupmode="layer"
     inkscape:label="SyncDocumetation"
     transform="matrix(1.3333333,0,0,-1.3333333,-166.73671,498.00426)"><path
       d="m 185.5,205 h 413.61 v -3 H 185.5 Z m 412.11,6 15,-7.5 -15,-7.5 z"
       style="fill:#595959;fill-opacity:1;fill-rule:nonzero;stroke:none"
       id="path4505"
       inkscape:connector-curvature="0" /><path
       d="m 201.5,239.1 c 0,5.41 4.34,9.8 9.7,9.8 5.36,0 9.7,-4.39 9.7,-9.8 0,-5.41 -4.34,-9.8 -9.7,-9.8 -5.36,0 -9.7,4.39 -9.7,9.8 z m 4.85,0 c 0,-2.73 2.17,-4.95 4.85,-4.95 2.68,0 4.85,2.22 4.85,4.95 0,2.73 -2.17,4.95 -4.85,4.95 -2.68,0 -4.85,-2.22 -4.85,-4.95 z"
       style="fill:#70ad47;fill-opacity:1;fill-rule:evenodd;stroke:none"
       id="path4507"
       inkscape:connector-curvature="0" /><path
       d="m 201.5,239.1 c 0,5.41 4.34,9.8 9.7,9.8 5.36,0 9.7,-4.39 9.7,-9.8 0,-5.41 -4.34,-9.8 -9.7,-9.8 -5.36,0 -9.7,4.39 -9.7,9.8 z m 4.85,0 c 0,-2.73 2.17,-4.95 4.85,-4.95 2.68,0 4.85,2.22 4.85,4.95 0,2.73 -2.17,4.95 -4.85,4.95 -2.68,0 -4.85,-2.22 -4.85,-4.95 z"
       style="fill:none;stroke:#507e32;stroke-width:1;stroke-linecap:butt;stroke-linejoin:miter;stroke-miterlimit:10;stroke-dasharray:none;stroke-opacity:1"
       id="path4509"
       inkscape:connector-curvature="0" /><path
       d="m 268.9,239.1 c 0,5.41 4.39,9.8 9.8,9.8 5.41,0 9.8,-4.39 9.8,-9.8 0,-5.41 -4.39,-9.8 -9.8,-9.8 -5.41,0 -9.8,4.39 -9.8,9.8 z m 4.9,0 c 0,-2.71 2.19,-4.9 4.9,-4.9 2.71,0 4.9,2.19 4.9,4.9 0,2.71 -2.19,4.9 -4.9,4.9 -2.71,0 -4.9,-2.19 -4.9,-4.9 z"
       style="fill:#70ad47;fill-opacity:1;fill-rule:evenodd;stroke:none"
       id="path4511"
       inkscape:connector-curvature="0" /><path
       d="m 268.9,239.1 c 0,5.41 4.39,9.8 9.8,9.8 5.41,0 9.8,-4.39 9.8,-9.8 0,-5.41 -4.39,-9.8 -9.8,-9.8 -5.41,0 -9.8,4.39 -9.8,9.8 z m 4.9,0 c 0,-2.71 2.19,-4.9 4.9,-4.9 2.71,0 4.9,2.19 4.9,4.9 0,2.71 -2.19,4.9 -4.9,4.9 -2.71,0 -4.9,-2.19 -4.9,-4.9 z"
       style="fill:none;stroke:#507e32;stroke-width:1;stroke-linecap:butt;stroke-linejoin:miter;stroke-miterlimit:10;stroke-dasharray:none;stroke-opacity:1"
       id="path4513"
       inkscape:connector-curvature="0" /><path
       d="m 336.5,239.1 c 0,5.41 4.34,9.8 9.7,9.8 5.36,0 9.7,-4.39 9.7,-9.8 0,-5.41 -4.34,-9.8 -9.7,-9.8 -5.36,0 -9.7,4.39 -9.7,9.8 z m 4.85,0 c 0,-2.73 2.17,-4.95 4.85,-4.95 2.68,0 4.85,2.22 4.85,4.95 0,2.73 -2.17,4.95 -4.85,4.95 -2.68,0 -4.85,-2.22 -4.85,-4.95 z"
       style="fill:#70ad47;fill-opacity:1;fill-rule:evenodd;stroke:none"
       id="path4515"
       inkscape:connector-curvature="0" /><path
       d="m 336.5,239.1 c 0,5.41 4.34,9.8 9.7,9.8 5.36,0 9.7,-4.39 9.7,-9.8 0,-5.41 -4.34,-9.8 -9.7,-9.8 -5.36,0 -9.7,4.39 -9.7,9.8 z m 4.85,0 c 0,-2.73 2.17,-4.95 4.85,-4.95 2.68,0 4.85,2.22 4.85,4.95 0,2.73 -2.17,4.95 -4.85,4.95 -2.68,0 -4.85,-2.22 -4.85,-4.95 z"
       style="fill:none;stroke:#507e32;stroke-width:1;stroke-linecap:butt;stroke-linejoin:miter;stroke-miterlimit:10;stroke-dasharray:none;stroke-opacity:1"
       id="path4517"
       inkscape:connector-curvature="0" /><path
       d="m 538.9,239.1 c 0,5.41 4.39,9.8 9.8,9.8 5.41,0 9.8,-4.39 9.8,-9.8 0,-5.41 -4.39,-9.8 -9.8,-9.8 -5.41,0 -9.8,4.39 -9.8,9.8 z m 4.9,0 c 0,-2.71 2.19,-4.9 4.9,-4.9 2.71,0 4.9,2.19 4.9,4.9 0,2.71 -2.19,4.9 -4.9,4.9 -2.71,0 -4.9,-2.19 -4.9,-4.9 z"
       style="fill:#70ad47;fill-opacity:1;fill-rule:evenodd;stroke:none"
       id="path4519"
       inkscape:connector-curvature="0" /><path
       d="m 538.9,239.1 c 0,5.41 4.39,9.8 9.8,9.8 5.41,0 9.8,-4.39 9.8,-9.8 0,-5.41 -4.39,-9.8 -9.8,-9.8 -5.41,0 -9.8,4.39 -9.8,9.8 z m 4.9,0 c 0,-2.71 2.19,-4.9 4.9,-4.9 2.71,0 4.9,2.19 4.9,4.9 0,2.71 -2.19,4.9 -4.9,4.9 -2.71,0 -4.9,-2.19 -4.9,-4.9 z"
       style="fill:none;stroke:#507e32;stroke-width:1;stroke-linecap:butt;stroke-linejoin:miter;stroke-miterlimit:10;stroke-dasharray:none;stroke-opacity:1"
       id="path4521"
       inkscape:connector-curvature="0" /><path
       d="m 201.5,291.6 c 0,5.36 4.34,9.7 9.7,9.7 5.36,0 9.7,-4.34 9.7,-9.7 0,-5.36 -4.34,-9.7 -9.7,-9.7 -5.36,0 -9.7,4.34 -9.7,9.7 z m 4.85,0 c 0,-2.68 2.17,-4.85 4.85,-4.85 2.68,0 4.85,2.17 4.85,4.85 0,2.68 -2.17,4.85 -4.85,4.85 -2.68,0 -4.85,-2.17 -4.85,-4.85 z"
       style="fill:#ed7d31;fill-opacity:1;fill-rule:evenodd;stroke:none"
       id="path4523"
       inkscape:connector-curvature="0" /><path
       d="m 201.5,291.6 c 0,5.36 4.34,9.7 9.7,9.7 5.36,0 9.7,-4.34 9.7,-9.7 0,-5.36 -4.34,-9.7 -9.7,-9.7 -5.36,0 -9.7,4.34 -9.7,9.7 z m 4.85,0 c 0,-2.68 2.17,-4.85 4.85,-4.85 2.68,0 4.85,2.17 4.85,4.85 0,2.68 -2.17,4.85 -4.85,4.85 -2.68,0 -4.85,-2.17 -4.85,-4.85 z"
       style="fill:none;stroke:#ae5a21;stroke-width:1;stroke-linecap:butt;stroke-linejoin:miter;stroke-miterlimit:10;stroke-dasharray:none;stroke-opacity:1"
       id="path4525"
       inkscape:connector-curvature="0" /><path
       d="m 336.5,291.6 c 0,5.36 4.34,9.7 9.7,9.7 5.36,0 9.7,-4.34 9.7,-9.7 0,-5.36 -4.34,-9.7 -9.7,-9.7 -5.36,0 -9.7,4.34 -9.7,9.7 z m 4.85,0 c 0,-2.68 2.17,-4.85 4.85,-4.85 2.68,0 4.85,2.17 4.85,4.85 0,2.68 -2.17,4.85 -4.85,4.85 -2.68,0 -4.85,-2.17 -4.85,-4.85 z"
       style="fill:#ed7d31;fill-opacity:1;fill-rule:evenodd;stroke:none"
       id="path4527"
       inkscape:connector-curvature="0" /><path
       d="m 336.5,291.6 c 0,5.36 4.34,9.7 9.7,9.7 5.36,0 9.7,-4.34 9.7,-9.7 0,-5.36 -4.34,-9.7 -9.7,-9.7 -5.36,0 -9.7,4.34 -9.7,9.7 z m 4.85,0 c 0,-2.68 2.17,-4.85 4.85,-4.85 2.68,0 4.85,2.17 4.85,4.85 0,2.68 -2.17,4.85 -4.85,4.85 -2.68,0 -4.85,-2.17 -4.85,-4.85 z"
       style="fill:none;stroke:#ae5a21;stroke-width:1;stroke-linecap:butt;stroke-linejoin:miter;stroke-miterlimit:10;stroke-dasharray:none;stroke-opacity:1"
       id="path4529"
       inkscape:connector-curvature="0" /><path
       d="m 403.9,291.6 c 0,5.36 4.39,9.7 9.8,9.7 5.41,0 9.8,-4.34 9.8,-9.7 0,-5.36 -4.39,-9.7 -9.8,-9.7 -5.41,0 -9.8,4.34 -9.8,9.7 z m 4.85,0 c 0,-2.68 2.22,-4.85 4.95,-4.85 2.73,0 4.95,2.17 4.95,4.85 0,2.68 -2.22,4.85 -4.95,4.85 -2.73,0 -4.95,-2.17 -4.95,-4.85 z"
       style="fill:#ed7d31;fill-opacity:1;fill-rule:evenodd;stroke:none"
       id="path4531"
       inkscape:connector-curvature="0" /><path
       d="m 403.9,291.6 c 0,5.36 4.39,9.7 9.8,9.7 5.41,0 9.8,-4.34 9.8,-9.7 0,-5.36 -4.39,-9.7 -9.8,-9.7 -5.41,0 -9.8,4.34 -9.8,9.7 z m 4.85,0 c 0,-2.68 2.22,-4.85 4.95,-4.85 2.73,0 4.95,2.17 4.95,4.85 0,2.68 -2.22,4.85 -4.95,4.85 -2.73,0 -4.95,-2.17 -4.95,-4.85 z"
       style="fill:none;stroke:#ae5a21;stroke-width:1;stroke-linecap:butt;stroke-linejoin:miter;stroke-miterlimit:10;stroke-dasharray:none;stroke-opacity:1"
       id="path4533"
       inkscape:connector-curvature="0" /><path
       d="m 538.9,291.6 c 0,5.36 4.39,9.7 9.8,9.7 5.41,0 9.8,-4.34 9.8,-9.7 0,-5.36 -4.39,-9.7 -9.8,-9.7 -5.41,0 -9.8,4.34 -9.8,9.7 z m 4.85,0 c 0,-2.68 2.22,-4.85 4.95,-4.85 2.73,0 4.95,2.17 4.95,4.85 0,2.68 -2.22,4.85 -4.95,4.85 -2.73,0 -4.95,-2.17 -4.95,-4.85 z"
       style="fill:#ed7d31;fill-opacity:1;fill-rule:evenodd;stroke:none"
       id="path4535"
       inkscape:connector-curvature="0" /><path
       d="m 538.9,291.6 c 0,5.36 4.39,9.7 9.8,9.7 5.41,0 9.8,-4.34 9.8,-9.7 0,-5.36 -4.39,-9.7 -9.8,-9.7 -5.41,0 -9.8,4.34 -9.8,9.7 z m 4.85,0 c 0,-2.68 2.22,-4.85 4.95,-4.85 2.73,0 4.95,2.17 4.95,4.85 0,2.68 -2.22,4.85 -4.95,4.85 -2.73,0 -4.95,-2.17 -4.95,-4.85 z"
       style="fill:none;stroke:#ae5a21;stroke-width:1;stroke-linecap:butt;stroke-linejoin:miter;stroke-miterlimit:10;stroke-dasharray:none;stroke-opacity:1"
       id="path4537"
       inkscape:connector-curvature="0" /><path
       d="m 276.9,291.7 c 0,0.99 0.81,1.8 1.8,1.8 0.99,0 1.8,-0.81 1.8,-1.8 0,-0.99 -0.81,-1.8 -1.8,-1.8 -0.99,0 -1.8,0.81 -1.8,1.8 z"
       style="fill:#000000;fill-opacity:1;fill-rule:evenodd;stroke:none"
       id="path4539"
       inkscape:connector-curvature="0" /><path
       d="m 276.9,291.7 c 0,0.99 0.81,1.8 1.8,1.8 0.99,0 1.8,-0.81 1.8,-1.8 0,-0.99 -0.81,-1.8 -1.8,-1.8 -0.99,0 -1.8,0.81 -1.8,1.8 z"
       style="fill:none;stroke:#000000;stroke-width:1;stroke-linecap:butt;stroke-linejoin:miter;stroke-miterlimit:10;stroke-dasharray:none;stroke-opacity:1"
       id="path4541"
       inkscape:connector-curvature="0" /><path
       d="m 479.3,291.7 c 0,0.99 0.81,1.8 1.8,1.8 0.99,0 1.8,-0.81 1.8,-1.8 0,-0.99 -0.81,-1.8 -1.8,-1.8 -0.99,0 -1.8,0.81 -1.8,1.8 z"
       style="fill:#000000;fill-opacity:1;fill-rule:evenodd;stroke:none"
       id="path4543"
       inkscape:connector-curvature="0" /><path
       d="m 479.3,291.7 c 0,0.99 0.81,1.8 1.8,1.8 0.99,0 1.8,-0.81 1.8,-1.8 0,-0.99 -0.81,-1.8 -1.8,-1.8 -0.99,0 -1.8,0.81 -1.8,1.8 z"
       style="fill:none;stroke:#000000;stroke-width:1;stroke-linecap:butt;stroke-linejoin:miter;stroke-miterlimit:10;stroke-dasharray:none;stroke-opacity:1"
       id="path4545"
       inkscape:connector-curvature="0" /><path
       d="m 479.3,239.1 c 0,0.99 0.81,1.8 1.8,1.8 0.99,0 1.8,-0.81 1.8,-1.8 0,-0.99 -0.81,-1.8 -1.8,-1.8 -0.99,0 -1.8,0.81 -1.8,1.8 z"
       style="fill:#000000;fill-opacity:1;fill-rule:evenodd;stroke:none"
       id="path4547"
       inkscape:connector-curvature="0" /><path
       d="m 479.3,239.1 c 0,0.99 0.81,1.8 1.8,1.8 0.99,0 1.8,-0.81 1.8,-1.8 0,-0.99 -0.81,-1.8 -1.8,-1.8 -0.99,0 -1.8,0.81 -1.8,1.8 z"
       style="fill:none;stroke:#000000;stroke-width:1;stroke-linecap:butt;stroke-linejoin:miter;stroke-miterlimit:10;stroke-dasharray:none;stroke-opacity:1"
       id="path4549"
       inkscape:connector-curvature="0" /><path
       d="M 211.1,212.7 V 194.1"
       style="fill:none;stroke:#595959;stroke-width:3;stroke-linecap:butt;stroke-linejoin:miter;stroke-miterlimit:10;stroke-dasharray:none;stroke-opacity:1"
       id="path4551"
       inkscape:connector-curvature="0" /><path
       d="M 278.7,212.7 V 194.1"
       style="fill:none;stroke:#595959;stroke-width:3;stroke-linecap:butt;stroke-linejoin:miter;stroke-miterlimit:10;stroke-dasharray:none;stroke-opacity:1"
       id="path4553"
       inkscape:connector-curvature="0" /><path
       d="M 346.1,212.7 V 194.1"
       style="fill:none;stroke:#595959;stroke-width:3;stroke-linecap:butt;stroke-linejoin:miter;stroke-miterlimit:10;stroke-dasharray:none;stroke-opacity:1"
       id="path4555"
       inkscape:connector-curvature="0" /><path
       d="M 413.7,212.7 V 194.1"
       style="fill:none;stroke:#595959;stroke-width:3;stroke-linecap:butt;stroke-linejoin:miter;stroke-miterlimit:10;stroke-dasharray:none;stroke-opacity:1"
       id="path4557"
       inkscape:connector-curvature="0" /><path
       d="M 548.7,212.7 V 194.1"
       style="fill:none;stroke:#595959;stroke-width:3;stroke-linecap:butt;stroke-linejoin:miter;stroke-miterlimit:10;stroke-dasharray:none;stroke-opacity:1"
       id="path4559"
       inkscape:connector-curvature="0" /><path
       d="m 411.9,239.1 c 0,0.99 0.81,1.8 1.8,1.8 0.99,0 1.8,-0.81 1.8,-1.8 0,-0.99 -0.81,-1.8 -1.8,-1.8 -0.99,0 -1.8,0.81 -1.8,1.8 z"
       style="fill:#000000;fill-opacity:1;fill-rule:evenodd;stroke:none"
       id="path4561"
       inkscape:connector-curvature="0" /><path
       d="m 411.9,239.1 c 0,0.99 0.81,1.8 1.8,1.8 0.99,0 1.8,-0.81 1.8,-1.8 0,-0.99 -0.81,-1.8 -1.8,-1.8 -0.99,0 -1.8,0.81 -1.8,1.8 z"
       style="fill:none;stroke:#000000;stroke-width:1;stroke-linecap:butt;stroke-linejoin:miter;stroke-miterlimit:10;stroke-dasharray:none;stroke-opacity:1"
       id="path4563"
       inkscape:connector-curvature="0" /><g
       id="g4565"><g
         id="g4567"
         clip-path="url(#clipPath4571)"><text
           transform="matrix(1,0,0,-1,133.9,285.8)"
           style="font-variant:normal;font-weight:normal;font-size:18.02499962px;font-family:Calibri;-inkscape-font-specification:Calibri;writing-mode:lr-tb;fill:#000000;fill-opacity:1;fill-rule:nonzero;stroke:none"
           id="text4575"><tspan
             x="0 9.6073246 18.241301"
             y="0"
             sodipodi:role="line"
             id="tspan4573">Cam</tspan></text>
</g></g><g
       id="g4577"><g
         id="g4579"
         clip-path="url(#clipPath4583)"><text
           transform="matrix(1,0,0,-1,170.73,285.8)"
           style="font-variant:normal;font-weight:normal;font-size:18.02499962px;font-family:Calibri;-inkscape-font-specification:Calibri;writing-mode:lr-tb;fill:#000000;fill-opacity:1;fill-rule:nonzero;stroke:none"
           id="text4587"><tspan
             x="0"
             y="0"
             id="tspan4585">L</tspan></text>
</g></g><g
       id="g4589"><g
         id="g4591"
         clip-path="url(#clipPath4595)"><text
           transform="matrix(1,0,0,-1,131.7,231.48)"
           style="font-variant:normal;font-weight:normal;font-size:18px;font-family:Calibri;-inkscape-font-specification:Calibri;writing-mode:lr-tb;fill:#000000;fill-opacity:1;fill-rule:nonzero;stroke:none"
           id="text4599"><tspan
             x="0 9.5939999 18.216"
             y="0"
             sodipodi:role="line"
             id="tspan4597">Cam</tspan></text>
</g></g><g
       id="g4601"><g
         id="g4603"
         clip-path="url(#clipPath4607)"><text
           transform="matrix(1,0,0,-1,168.53,231.48)"
           style="font-variant:normal;font-weight:normal;font-size:18px;font-family:Calibri;-inkscape-font-specification:Calibri;writing-mode:lr-tb;fill:#000000;fill-opacity:1;fill-rule:nonzero;stroke:none"
           id="text4611"><tspan
             x="0"
             y="0"
             id="tspan4609">R</tspan></text>
</g></g><g
       id="g4613"><g
         id="g4615"
         clip-path="url(#clipPath4619)"><text
           transform="matrix(1,0,0,-1,572.52,218.17)"
           style="font-style:italic;font-variant:normal;font-weight:normal;font-size:18.02499962px;font-family:Calibri;-inkscape-font-specification:Calibri-Italic;writing-mode:lr-tb;fill:#595959;fill-opacity:1;fill-rule:nonzero;stroke:none"
           id="text4623"><tspan
             x="0 6.0383749 10.184125 24.4419"
             y="0"
             sodipodi:role="line"
             id="tspan4621">time</tspan></text>
</g></g><path
       d="m 185.5,331.8 h 413.61 v -3 H 185.5 Z m 412.11,6 15,-7.5 -15,-7.5 z"
       style="fill:#595959;fill-opacity:1;fill-rule:nonzero;stroke:none"
       id="path4625"
       inkscape:connector-curvature="0" /><path
       d="M 211.1,339.5 V 320.9"
       style="fill:none;stroke:#595959;stroke-width:3;stroke-linecap:butt;stroke-linejoin:miter;stroke-miterlimit:10;stroke-dasharray:none;stroke-opacity:1"
       id="path4627"
       inkscape:connector-curvature="0" /><path
       d="M 346.1,339.5 V 320.9"
       style="fill:none;stroke:#595959;stroke-width:3;stroke-linecap:butt;stroke-linejoin:miter;stroke-miterlimit:10;stroke-dasharray:none;stroke-opacity:1"
       id="path4629"
       inkscape:connector-curvature="0" /><path
       d="M 548.7,339.5 V 320.9"
       style="fill:none;stroke:#595959;stroke-width:3;stroke-linecap:butt;stroke-linejoin:miter;stroke-miterlimit:10;stroke-dasharray:none;stroke-opacity:1"
       id="path4631"
       inkscape:connector-curvature="0" /><g
       id="g4633"><g
         id="g4635"
         clip-path="url(#clipPath4639)"><text
           transform="matrix(1,0,0,-1,572.52,303.75)"
           style="font-style:italic;font-variant:normal;font-weight:normal;font-size:18.02499962px;font-family:Calibri;-inkscape-font-specification:Calibri-Italic;writing-mode:lr-tb;fill:#595959;fill-opacity:1;fill-rule:nonzero;stroke:none"
           id="text4643"><tspan
             x="0 6.0383749 10.184125 24.4419"
             y="0"
             sodipodi:role="line"
             id="tspan4641">time</tspan></text>
</g></g><g
       id="g4645"><g
         id="g4647"
         clip-path="url(#clipPath4651)"><text
           transform="matrix(1,0,0,-1,341.98,355.72)"
           style="font-variant:normal;font-weight:normal;font-size:18px;font-family:'Courier New';-inkscape-font-specification:CourierNewPSMT;writing-mode:lr-tb;fill:#000000;fill-opacity:1;fill-rule:nonzero;stroke:none"
           id="text4655"><tspan
             x="0 10.8 21.6 32.400002"
             y="0"
             sodipodi:role="line"
             id="tspan4653">sync</tspan></text>
</g></g><g
       id="g4657"><g
         id="g4659"
         clip-path="url(#clipPath4663)"><text
           transform="matrix(1,0,0,-1,385.2,355.72)"
           style="font-variant:normal;font-weight:normal;font-size:18px;font-family:'Courier New';-inkscape-font-specification:CourierNewPSMT;writing-mode:lr-tb;fill:#000000;fill-opacity:1;fill-rule:nonzero;stroke:none"
           id="text4667"><tspan
             x="0 10.8 21.402 32.202 43.001999"
             y="0"
             sodipodi:role="line"
             id="tspan4665">=True</tspan></text>
</g></g><g
       id="g4669"><g
         id="g4671"
         clip-path="url(#clipPath4675)"><text
           transform="matrix(1,0,0,-1,336.57,168.5)"
           style="font-variant:normal;font-weight:normal;font-size:18px;font-family:'Courier New';-inkscape-font-specification:CourierNewPSMT;writing-mode:lr-tb;fill:#000000;fill-opacity:1;fill-rule:nonzero;stroke:none"
           id="text4679"><tspan
             x="0 10.8 21.6 32.400002"
             y="0"
             sodipodi:role="line"
             id="tspan4677">sync</tspan></text>
</g></g><g
       id="g4681"><g
         id="g4683"
         clip-path="url(#clipPath4687)"><text
           transform="matrix(1,0,0,-1,379.8,168.5)"
           style="font-variant:normal;font-weight:normal;font-size:18px;font-family:'Courier New';-inkscape-font-specification:CourierNewPSMT;writing-mode:lr-tb;fill:#000000;fill-opacity:1;fill-rule:nonzero;stroke:none"
           id="text4691"><tspan
             x="0"
             y="0"
             id="tspan4689">=</tspan></text>
</g></g><g
       id="g4693"><g
         id="g4695"
         clip-path="url(#clipPath4699)"><text
           transform="matrix(1,0,0,-1,390.6,168.5)"
           style="font-variant:normal;font-weight:normal;font-size:18px;font-family:'Courier New';-inkscape-font-specification:CourierNewPSMT;writing-mode:lr-tb;fill:#000000;fill-opacity:1;fill-rule:nonzero;stroke:none"
           id="text4703"><tspan
             x="0 10.602 21.402 32.202 43.001999"
             y="0"
             sodipodi:role="line"
             id="tspan4701">False</tspan></text>
</g></g></g></svg>