<?xml version="1.0" encoding="UTF-8" standalone="no"?>
<svg
   xmlns:dc="http://purl.org/dc/elements/1.1/"
   xmlns:cc="http://creativecommons.org/ns#"
   xmlns:rdf="http://www.w3.org/1999/02/22-rdf-syntax-ns#"
   xmlns:svg="http://www.w3.org/2000/svg"
   xmlns="http://www.w3.org/2000/svg"
   xmlns:sodipodi="http://sodipodi.sourceforge.net/DTD/sodipodi-0.dtd"
   xmlns:inkscape="http://www.inkscape.org/namespaces/inkscape"
   style="fill-opacity:1; color-rendering:auto; color-interpolation:auto; stroke:black; text-rendering:auto; stroke-linecap:square; stroke-miterlimit:10; stroke-opacity:1; shape-rendering:auto; fill:black; stroke-dasharray:none; font-weight:normal; stroke-width:1; font-family:'Dialog'; font-style:normal; stroke-linejoin:miter; font-size:12px; stroke-dashoffset:0; image-rendering:auto;"
   width="1260"
   height="525"
   version="1.1"
   id="svg4369"
   sodipodi:docname="interpolation-linear.svg"
   inkscape:version="0.92.0 r15299">
  <metadata
     id="metadata4373">
    <rdf:RDF>
      <cc:Work
         rdf:about="">
        <dc:format>image/svg+xml</dc:format>
        <dc:type
           rdf:resource="http://purl.org/dc/dcmitype/StillImage" />
      </cc:Work>
    </rdf:RDF>
  </metadata>
  <sodipodi:namedview
     pagecolor="#ffffff"
     bordercolor="#666666"
     borderopacity="1"
     objecttolerance="10"
     gridtolerance="10"
     guidetolerance="10"
     inkscape:pageopacity="0"
     inkscape:pageshadow="2"
     inkscape:window-width="1920"
     inkscape:window-height="1001"
     id="namedview4371"
     showgrid="false"
     inkscape:zoom="0.98994949"
     inkscape:cx="526.23195"
     inkscape:cy="249.66094"
     inkscape:window-x="-9"
     inkscape:window-y="-9"
     inkscape:window-maximized="1"
     inkscape:current-layer="svg4369" />
  <!--Generated by the Batik Graphics2D SVG Generator-->
  <defs
     id="genericDefs">
    <marker
       inkscape:stockid="Arrow2Lend"
       orient="auto"
       refY="0.0"
       refX="0.0"
       id="marker5562"
       style="overflow:visible;"
       inkscape:isstock="true">
      <path
         id="path5560"
         style="fill-rule:evenodd;stroke-width:0.625;stroke-linejoin:round;stroke:#000000;stroke-opacity:1;fill:#000000;fill-opacity:1"
         d="M 8.7185878,4.0337352 L -2.2072895,0.016013256 L 8.7185884,-4.0017078 C 6.9730900,-1.6296469 6.9831476,1.6157441 8.7185878,4.0337352 z "
         transform="scale(1.1) rotate(180) translate(1,0)" />
    </marker>
    <marker
       inkscape:stockid="Arrow2Lstart"
       orient="auto"
       refY="0.0"
       refX="0.0"
       id="Arrow2Lstart"
       style="overflow:visible"
       inkscape:isstock="true">
      <path
         id="path5226"
         style="fill-rule:evenodd;stroke-width:0.625;stroke-linejoin:round;stroke:#000000;stroke-opacity:1;fill:#000000;fill-opacity:1"
         d="M 8.7185878,4.0337352 L -2.2072895,0.016013256 L 8.7185884,-4.0017078 C 6.9730900,-1.6296469 6.9831476,1.6157441 8.7185878,4.0337352 z "
         transform="scale(1.1) translate(1,0)" />
    </marker>
    <marker
       inkscape:stockid="Arrow2Lend"
       orient="auto"
       refY="0.0"
       refX="0.0"
       id="Arrow2Lend"
       style="overflow:visible;"
       inkscape:isstock="true">
      <path
         id="path5229"
         style="fill-rule:evenodd;stroke-width:0.625;stroke-linejoin:round;stroke:#000000;stroke-opacity:1;fill:#000000;fill-opacity:1"
         d="M 8.7185878,4.0337352 L -2.2072895,0.016013256 L 8.7185884,-4.0017078 C 6.9730900,-1.6296469 6.9831476,1.6157441 8.7185878,4.0337352 z "
         transform="scale(1.1) rotate(180) translate(1,0)" />
    </marker>
    <marker
       inkscape:stockid="Arrow1Lstart"
       orient="auto"
       refY="0.0"
       refX="0.0"
       id="Arrow1Lstart"
       style="overflow:visible"
       inkscape:isstock="true">
      <path
         id="path5208"
         d="M 0.0,0.0 L 5.0,-5.0 L -12.5,0.0 L 5.0,5.0 L 0.0,0.0 z "
         style="fill-rule:evenodd;stroke:#000000;stroke-width:1pt;stroke-opacity:1;fill:#000000;fill-opacity:1"
         transform="scale(0.8) translate(12.5,0)" />
    </marker>
  </defs>
  <g
     id="g4367">
    <defs
       id="defs1">
      <clipPath
         clipPathUnits="userSpaceOnUse"
         id="clipPath1">
        <path
           d="M0 0 L1260 0 L1260 525 L0 525 L0 0 Z"
           id="path4303" />
      </clipPath>
    </defs>
    <g
       style="fill:white; stroke:white;"
       id="g4309">
      <rect
         x="0"
         y="0"
         width="1260"
         style="clip-path:url(#clipPath1); stroke:none;"
         height="525"
         clip-path="url(#clipPath1)"
         id="rect4307" />
    </g>
    <g
       style="fill:white; text-rendering:optimizeSpeed; color-rendering:optimizeSpeed; image-rendering:optimizeSpeed; shape-rendering:crispEdges; color-interpolation:sRGB; stroke:white;"
       id="g4313">
      <rect
         x="0"
         width="1260"
         height="525"
         y="0"
         style="stroke:none;"
         id="rect4311" />
    </g>
    <g
       style="stroke-linecap:butt; fill:rgb(38,38,38); text-rendering:geometricPrecision; color-rendering:optimizeQuality; image-rendering:optimizeQuality; stroke-linejoin:round; color-interpolation:linearRGB; stroke:rgb(38,38,38); stroke-width:0.8333;"
       id="g4317">
      <line
         y2="467"
         style="fill:none;"
         x1="164"
         x2="1140"
         y1="467"
         id="line4315" />
    </g>
    <g
       transform="translate(286,352.8667)"
       style="fill:blue; text-rendering:geometricPrecision; color-rendering:optimizeQuality; image-rendering:optimizeQuality; color-interpolation:linearRGB; stroke:blue;"
       id="g4321">
      <circle
         r="5"
         style="stroke:none;"
         cx="-0.5"
         cy="-0.5"
         id="circle4319" />
    </g>
    <g
       transform="translate(286,352.8667)"
       style="stroke-linecap:butt; fill:blue; text-rendering:geometricPrecision; color-rendering:optimizeQuality; image-rendering:optimizeQuality; color-interpolation:linearRGB; stroke:blue; stroke-width:2.5;"
       id="g4325">
      <circle
         r="5"
         style="fill:none;"
         cx="-0.5"
         cy="-0.5"
         id="circle4323" />
    </g>
    <g
       transform="translate(530,181.6667)"
       style="fill:blue; text-rendering:geometricPrecision; color-rendering:optimizeQuality; image-rendering:optimizeQuality; color-interpolation:linearRGB; stroke:blue;"
       id="g4329">
      <circle
         r="5"
         style="stroke:none;"
         cx="-0.5"
         cy="-0.5"
         id="circle4327" />
    </g>
    <g
       transform="translate(530,181.6667)"
       style="stroke-linecap:butt; fill:blue; text-rendering:geometricPrecision; color-rendering:optimizeQuality; image-rendering:optimizeQuality; color-interpolation:linearRGB; stroke:blue; stroke-width:2.5;"
       id="g4333">
      <circle
         r="5"
         style="fill:none;"
         cx="-0.5"
         cy="-0.5"
         id="circle4331" />
    </g>
    <g
       transform="translate(774,110.3333)"
       style="fill:blue; text-rendering:geometricPrecision; color-rendering:optimizeQuality; image-rendering:optimizeQuality; color-interpolation:linearRGB; stroke:blue;"
       id="g4337">
      <circle
         r="5"
         style="stroke:none;"
         cx="-0.5"
         cy="-0.5"
         id="circle4335" />
    </g>
    <g
       transform="translate(774,110.3333)"
       style="stroke-linecap:butt; fill:blue; text-rendering:geometricPrecision; color-rendering:optimizeQuality; image-rendering:optimizeQuality; color-interpolation:linearRGB; stroke:blue; stroke-width:2.5;"
       id="g4341">
      <circle
         r="5"
         style="fill:none;"
         cx="-0.5"
         cy="-0.5"
         id="circle4339" />
    </g>
    <g
       transform="translate(1018,81.8)"
       style="fill:blue; text-rendering:geometricPrecision; color-rendering:optimizeQuality; image-rendering:optimizeQuality; color-interpolation:linearRGB; stroke:blue;"
       id="g4345">
      <circle
         r="5"
         style="stroke:none;"
         cx="-0.5"
         cy="-0.5"
         id="circle4343" />
    </g>
    <g
       transform="translate(1018,81.8)"
       style="stroke-linecap:butt; fill:blue; text-rendering:geometricPrecision; color-rendering:optimizeQuality; image-rendering:optimizeQuality; color-interpolation:linearRGB; stroke:blue; stroke-width:2.5;"
       id="g4361">
      <circle
         r="5"
         style="fill:none;"
         cx="-0.5"
         cy="-0.5"
         id="circle4347" />
      <line
         transform="translate(-1018,-81.8)"
         x1="286"
         x2="286"
         y1="467"
         style="fill:none; stroke-linejoin:round;"
         y2="352.8667"
         id="line4349" />
      <line
         transform="translate(-1018,-81.8)"
         x1="530"
         x2="530"
         y1="467"
         style="fill:none; stroke-linejoin:round;"
         y2="181.6667"
         id="line4351" />
      <line
         transform="translate(-1018,-81.8)"
         x1="774"
         x2="774"
         y1="467"
         style="fill:none; stroke-linejoin:round;"
         y2="110.3333"
         id="line4353" />
      <line
         transform="translate(-1018,-81.8)"
         x1="1018"
         x2="1018"
         y1="467"
         style="fill:none; stroke-linejoin:round;"
         y2="81.8"
         id="line4355" />
      <circle
         transform="translate(-317.2,49.9334)"
         style="fill:none; stroke:red;"
         r="5"
         cx="-0.5"
         cy="-0.5"
         id="circle4357" />
      <line
         transform="translate(-1018,-81.8)"
         x1="700.8"
         x2="700.8"
         y1="467"
         style="fill:none; stroke-linejoin:round; stroke:red;"
         y2="131.7334"
         id="line4359" />
    </g>
    <g
       style="stroke-linecap:butt; fill:blue; text-rendering:geometricPrecision; color-rendering:optimizeQuality; image-rendering:optimizeQuality; stroke-linejoin:bevel; stroke-dasharray:10,6; color-interpolation:linearRGB; stroke:blue; stroke-width:0.8333; stroke-miterlimit:1;"
       id="g4365">
      <path
         d="M530 181.6667 L532.4647 180.9461 L534.9293 180.2256 L537.3939 179.5051 L539.8586 178.7845 L542.3232 178.064 L544.7878 177.3434 L547.2525 176.6229 L549.7172 175.9023 L552.1818 175.1818 L554.6465 174.4613 L557.1111 173.7407 L559.5757 173.0202 L562.0404 172.2997 L564.5051 171.5791 L566.9697 170.8586 L569.4343 170.138 L571.899 169.4175 L574.3636 168.697 L576.8283 167.9764 L579.2929 167.2559 L581.7576 166.5354 L584.2222 165.8148 L586.6869 165.0943 L589.1515 164.3737 L591.6161 163.6532 L594.0808 162.9327 L596.5455 162.2121 L599.0101 161.4916 L601.4747 160.7711 L603.9394 160.0505 L606.4041 159.33 L608.8687 158.6094 L611.3333 157.8889 L613.798 157.1684 L616.2626 156.4478 L618.7273 155.7273 L621.1919 155.0067 L623.6566 154.2862 L626.1212 153.5656 L628.5859 152.8451 L631.0505 152.1246 L633.5151 151.404 L635.9798 150.6835 L638.4445 149.963 L640.9091 149.2424 L643.3737 148.5219 L645.8384 147.8013 L648.303 147.0808 L650.7676 146.3603 L653.2324 145.6397 L655.697 144.9192 L658.1616 144.1987 L660.6263 143.4781 L663.0909 142.7576 L665.5555 142.037 L668.0202 141.3165 L670.4849 140.596 L672.9495 139.8754 L675.4141 139.1549 L677.8788 138.4344 L680.3434 137.7138 L682.8081 136.9933 L685.2727 136.2727 L687.7374 135.5522 L690.202 134.8316 L692.6667 134.1111 L695.1313 133.3906 L697.5959 132.67 L700.0606 131.9495 L702.5253 131.2289 L704.9899 130.5084 L707.4545 129.7879 L709.9192 129.0673 L712.3839 128.3468 L714.8485 127.6262 L717.3131 126.9057 L719.7778 126.1852 L722.2424 125.4646 L724.7071 124.7441 L727.1717 124.0236 L729.6364 123.303 L732.101 122.5825 L734.5657 121.862 L737.0303 121.1414 L739.4949 120.4209 L741.9596 119.7003 L744.4243 118.9798 L746.8889 118.2593 L749.3535 117.5387 L751.8182 116.8182 L754.2828 116.0976 L756.7475 115.3771 L759.2122 114.6566 L761.6768 113.936 L764.1414 113.2155 L766.6061 112.4949 L769.0707 111.7744 L771.5353 111.0539 L774 110.3333"
         style="fill:none; fill-rule:evenodd;"
         id="path4363" />
    </g>
  </g>
  <text
     xml:space="preserve"
     style="font-style:normal;font-weight:normal;font-size:40px;line-height:25px;font-family:sans-serif;letter-spacing:0px;word-spacing:0px;fill:#000000;fill-opacity:1;stroke:none"
     x="546.51282"
     y="449.65475"
     id="text4377"><tspan
       sodipodi:role="line"
       id="tspan4375"
       x="546.51282"
       y="449.65475">t = 0.7</tspan></text>
  <text
     xml:space="preserve"
     style="font-style:normal;font-weight:normal;font-size:40px;line-height:25px;font-family:sans-serif;letter-spacing:0px;word-spacing:0px;fill:#000000;fill-opacity:1;stroke:none"
     x="511.13721"
     y="161.34509"
     id="text4381"><tspan
       sodipodi:role="line"
       id="tspan4379"
       x="511.13721"
       y="161.34509">a</tspan></text>
  <text
     xml:space="preserve"
     style="font-style:normal;font-weight:normal;font-size:40px;line-height:25px;font-family:sans-serif;letter-spacing:0px;word-spacing:0px;fill:#000000;fill-opacity:1;stroke:none"
     x="761.65497"
     y="89.624252"
     id="text4385"><tspan
       sodipodi:role="line"
       id="tspan4383"
       x="761.65497"
       y="89.624252">b</tspan></text>
  <text
     xml:space="preserve"
     style="font-style:normal;font-weight:normal;font-size:40px;line-height:25px;font-family:sans-serif;letter-spacing:0px;word-spacing:0px;fill:#000000;fill-opacity:1;stroke:none"
     x="684.88342"
     y="108.81715"
     id="text4389"><tspan
       sodipodi:role="line"
       id="tspan4387"
       x="684.88342"
       y="108.81715">x</tspan></text>
  <text
     xml:space="preserve"
     style="font-style:normal;font-weight:normal;font-size:40px;line-height:25px;font-family:sans-serif;letter-spacing:0px;word-spacing:0px;fill:#000000;fill-opacity:1;stroke:none"
     x="258.59903"
     y="330.04056"
     id="text4393"><tspan
       sodipodi:role="line"
       id="tspan4391"
       x="258.59903"
       y="330.04056">a0</tspan></text>
  <text
     xml:space="preserve"
     style="font-style:normal;font-weight:normal;font-size:40px;line-height:25px;font-family:sans-serif;letter-spacing:0px;word-spacing:0px;fill:#000000;fill-opacity:1;stroke:none"
     x="992.97998"
     y="65.380592"
     id="text4397"><tspan
       sodipodi:role="line"
       id="tspan4395"
       x="992.97998"
       y="65.380592">b0</tspan></text>
  <path
     style="fill:none;stroke:#000000;stroke-width:1.60000002;stroke-linecap:butt;stroke-linejoin:miter;stroke-miterlimit:10;stroke-dasharray:none;stroke-opacity:1;marker-start:url(#Arrow2Lstart);marker-end:url(#marker5562)"
     d="M 534.3707,466.86796 H 691.95449"
     id="path4401"
     inkscape:connector-curvature="0" />
</svg>
