<?xml version="1.0" encoding="UTF-8" standalone="no"?>
<svg
   xmlns:dc="http://purl.org/dc/elements/1.1/"
   xmlns:cc="http://creativecommons.org/ns#"
   xmlns:rdf="http://www.w3.org/1999/02/22-rdf-syntax-ns#"
   xmlns:svg="http://www.w3.org/2000/svg"
   xmlns="http://www.w3.org/2000/svg"
   xmlns:sodipodi="http://sodipodi.sourceforge.net/DTD/sodipodi-0.dtd"
   xmlns:inkscape="http://www.inkscape.org/namespaces/inkscape"
   style="fill-opacity:1; color-rendering:auto; color-interpolation:auto; stroke:black; text-rendering:auto; stroke-linecap:square; stroke-miterlimit:10; stroke-opacity:1; shape-rendering:auto; fill:black; stroke-dasharray:none; font-weight:normal; stroke-width:1; font-family:'Dialog'; font-style:normal; stroke-linejoin:miter; font-size:12px; stroke-dashoffset:0; image-rendering:auto;"
   width="1260"
   height="525"
   version="1.1"
   id="svg73"
   sodipodi:docname="interpolation-cubic.svg"
   inkscape:version="0.92.0 r15299">
  <metadata
     id="metadata77">
    <rdf:RDF>
      <cc:Work
         rdf:about="">
        <dc:format>image/svg+xml</dc:format>
        <dc:type
           rdf:resource="http://purl.org/dc/dcmitype/StillImage" />
      </cc:Work>
    </rdf:RDF>
  </metadata>
  <sodipodi:namedview
     pagecolor="#ffffff"
     bordercolor="#666666"
     borderopacity="1"
     objecttolerance="10"
     gridtolerance="10"
     guidetolerance="10"
     inkscape:pageopacity="0"
     inkscape:pageshadow="2"
     inkscape:window-width="1920"
     inkscape:window-height="1001"
     id="namedview75"
     showgrid="false"
     inkscape:zoom="1.4"
     inkscape:cx="651.8201"
     inkscape:cy="310.57949"
     inkscape:window-x="-9"
     inkscape:window-y="-9"
     inkscape:window-maximized="1"
     inkscape:current-layer="svg73" />
  <!--Generated by the Batik Graphics2D SVG Generator-->
  <defs
     id="genericDefs">
    <marker
       inkscape:stockid="Arrow2Lend"
       orient="auto"
       refY="0.0"
       refX="0.0"
       id="Arrow2Lend"
       style="overflow:visible;"
       inkscape:isstock="true">
      <path
         id="path927"
         style="fill-rule:evenodd;stroke-width:0.625;stroke-linejoin:round;stroke:#000000;stroke-opacity:1;fill:#000000;fill-opacity:1"
         d="M 8.7185878,4.0337352 L -2.2072895,0.016013256 L 8.7185884,-4.0017078 C 6.9730900,-1.6296469 6.9831476,1.6157441 8.7185878,4.0337352 z "
         transform="scale(1.1) rotate(180) translate(1,0)" />
    </marker>
    <marker
       inkscape:stockid="Arrow2Lstart"
       orient="auto"
       refY="0.0"
       refX="0.0"
       id="Arrow2Lstart"
       style="overflow:visible"
       inkscape:isstock="true">
      <path
         id="path924"
         style="fill-rule:evenodd;stroke-width:0.625;stroke-linejoin:round;stroke:#000000;stroke-opacity:1;fill:#000000;fill-opacity:1"
         d="M 8.7185878,4.0337352 L -2.2072895,0.016013256 L 8.7185884,-4.0017078 C 6.9730900,-1.6296469 6.9831476,1.6157441 8.7185878,4.0337352 z "
         transform="scale(1.1) translate(1,0)" />
    </marker>
  </defs>
  <g
     id="g71"
     transform="translate(3.5714283)">
    <defs
       id="defs1">
      <clipPath
         clipPathUnits="userSpaceOnUse"
         id="clipPath1">
        <path
           d="M 0,0 H 1260 V 525 H 0 Z"
           id="path3"
           inkscape:connector-curvature="0" />
      </clipPath>
    </defs>
    <g
       style="fill:#ffffff;stroke:#ffffff"
       id="g9">
      <rect
         x="0"
         y="0"
         width="1260"
         style="stroke:none"
         height="525"
         clip-path="url(#clipPath1)"
         id="rect7" />
    </g>
    <g
       style="color-interpolation:sRGB;fill:#ffffff;stroke:#ffffff;color-rendering:optimizeSpeed;image-rendering:optimizeSpeed;shape-rendering:crispEdges;text-rendering:optimizeSpeed"
       id="g13">
      <rect
         x="0"
         width="1260"
         height="525"
         y="0"
         style="stroke:none"
         id="rect11" />
    </g>
    <g
       style="color-interpolation:linearRGB;fill:#262626;stroke:#262626;stroke-width:0.83329999;stroke-linecap:butt;stroke-linejoin:round;color-rendering:optimizeQuality;image-rendering:optimizeQuality;text-rendering:geometricPrecision"
       id="g17">
      <line
         y2="467"
         style="fill:none"
         x1="164"
         x2="1140"
         y1="467"
         id="line15" />
    </g>
    <g
       transform="translate(286,369.1714)"
       style="color-interpolation:linearRGB;fill:#0000ff;stroke:#0000ff;color-rendering:optimizeQuality;image-rendering:optimizeQuality;text-rendering:geometricPrecision"
       id="g21">
      <circle
         r="5"
         style="stroke:none"
         cx="-0.5"
         cy="-0.5"
         id="circle19" />
    </g>
    <g
       transform="translate(286,369.1714)"
       style="color-interpolation:linearRGB;fill:#0000ff;stroke:#0000ff;stroke-width:2.5;stroke-linecap:butt;color-rendering:optimizeQuality;image-rendering:optimizeQuality;text-rendering:geometricPrecision"
       id="g25">
      <circle
         r="5"
         style="fill:none"
         cx="-0.5"
         cy="-0.5"
         id="circle23" />
    </g>
    <g
       transform="translate(530,222.4286)"
       style="color-interpolation:linearRGB;fill:#0000ff;stroke:#0000ff;color-rendering:optimizeQuality;image-rendering:optimizeQuality;text-rendering:geometricPrecision"
       id="g29">
      <circle
         r="5"
         style="stroke:none"
         cx="-0.5"
         cy="-0.5"
         id="circle27" />
    </g>
    <g
       transform="translate(530,222.4286)"
       style="color-interpolation:linearRGB;fill:#0000ff;stroke:#0000ff;stroke-width:2.5;stroke-linecap:butt;color-rendering:optimizeQuality;image-rendering:optimizeQuality;text-rendering:geometricPrecision"
       id="g33">
      <circle
         r="5"
         style="fill:none"
         cx="-0.5"
         cy="-0.5"
         id="circle31" />
    </g>
    <g
       transform="translate(774,161.2857)"
       style="color-interpolation:linearRGB;fill:#0000ff;stroke:#0000ff;color-rendering:optimizeQuality;image-rendering:optimizeQuality;text-rendering:geometricPrecision"
       id="g37">
      <circle
         r="5"
         style="stroke:none"
         cx="-0.5"
         cy="-0.5"
         id="circle35" />
    </g>
    <g
       transform="translate(774,161.2857)"
       style="color-interpolation:linearRGB;fill:#0000ff;stroke:#0000ff;stroke-width:2.5;stroke-linecap:butt;color-rendering:optimizeQuality;image-rendering:optimizeQuality;text-rendering:geometricPrecision"
       id="g41">
      <circle
         r="5"
         style="fill:none"
         cx="-0.5"
         cy="-0.5"
         id="circle39" />
    </g>
    <g
       transform="translate(1018,136.8286)"
       style="color-interpolation:linearRGB;fill:#0000ff;stroke:#0000ff;color-rendering:optimizeQuality;image-rendering:optimizeQuality;text-rendering:geometricPrecision"
       id="g45">
      <circle
         r="5"
         style="stroke:none"
         cx="-0.5"
         cy="-0.5"
         id="circle43" />
    </g>
    <g
       transform="translate(1018,136.8286)"
       style="color-interpolation:linearRGB;fill:#0000ff;stroke:#0000ff;stroke-width:2.5;stroke-linecap:butt;color-rendering:optimizeQuality;image-rendering:optimizeQuality;text-rendering:geometricPrecision"
       id="g61">
      <circle
         r="5"
         style="fill:none"
         cx="-0.5"
         cy="-0.5"
         id="circle47" />
      <line
         transform="translate(-1018,-136.8286)"
         x1="286"
         x2="286"
         y1="467"
         style="fill:none;stroke-linejoin:round"
         y2="369.17139"
         id="line49" />
      <line
         transform="translate(-1018,-136.8286)"
         x1="530"
         x2="530"
         y1="467"
         style="fill:none;stroke-linejoin:round"
         y2="222.4286"
         id="line51" />
      <line
         transform="translate(-1018,-136.8286)"
         x1="774"
         x2="774"
         y1="467"
         style="fill:none;stroke-linejoin:round"
         y2="161.28571"
         id="line53" />
      <line
         transform="translate(-1018,-136.8286)"
         x1="1018"
         x2="1018"
         y1="467"
         style="fill:none;stroke-linejoin:round"
         y2="136.8286"
         id="line55" />
      <circle
         transform="translate(-317.2,37.4072)"
         style="fill:none;stroke:#ff0000"
         r="5"
         cx="-0.5"
         cy="-0.5"
         id="circle57" />
      <line
         transform="translate(-1018,-136.8286)"
         x1="700.79999"
         x2="700.79999"
         y1="467"
         style="fill:none;stroke:#ff0000;stroke-linejoin:round"
         y2="174.23579"
         id="line59" />
    </g>
    <g
       style="color-interpolation:linearRGB;fill:#0000ff;stroke:#0000ff;stroke-width:0.83329999;stroke-linecap:butt;stroke-linejoin:bevel;stroke-miterlimit:1;stroke-dasharray:10, 6;color-rendering:optimizeQuality;image-rendering:optimizeQuality;text-rendering:geometricPrecision"
       id="g69">
      <path
         d="m 530,222.4286 2.4647,-1.0431 2.4646,-1.0295 2.4646,-1.0161 2.4647,-1.0028 2.4646,-0.9897 2.4646,-0.9768 2.4647,-0.9639 2.4647,-0.9513 2.4646,-0.9387 2.4647,-0.9264 2.4646,-0.9142 2.4646,-0.9021 2.4647,-0.8901 2.4647,-0.8785 2.4646,-0.8668 2.4646,-0.8554 2.4647,-0.844 2.4646,-0.833 2.4647,-0.8219 2.4646,-0.811 2.4647,-0.8004 2.4646,-0.7898 2.4647,-0.7794 2.4646,-0.7692 2.4646,-0.759 2.4647,-0.7492 2.4647,-0.7393 2.4646,-0.7297 2.4646,-0.7202 2.4647,-0.7109 2.4647,-0.7017 2.4646,-0.6926 2.4646,-0.6837 2.4647,-0.6751 2.4646,-0.6664 2.4647,-0.658 2.4646,-0.6498 2.4647,-0.6415 2.4646,-0.6337 2.4647,-0.6258 2.4646,-0.6181 2.4646,-0.6106 2.4647,-0.6032 2.4647,-0.596 2.4646,-0.5889 2.4646,-0.5821 2.4647,-0.5752 2.4646,-0.5687 2.4646,-0.5621 2.4648,-0.5559 2.4646,-0.5496 2.4646,-0.5437 2.4647,-0.5378 2.4646,-0.5322 2.4646,-0.5265 2.4647,-0.5211 2.4647,-0.5159 2.4646,-0.5108 2.4646,-0.5058 2.4647,-0.5011 2.4646,-0.4964 2.4647,-0.4918 2.4646,-0.4876 2.4647,-0.4833 2.4646,-0.4793 2.4647,-0.4754 2.4646,-0.4716 2.4646,-0.4681 2.4647,-0.4646 2.4647,-0.4613 2.4646,-0.4582 2.4646,-0.4552 2.4647,-0.4524 2.4647,-0.4497 2.4646,-0.4471 2.4646,-0.4448 2.4647,-0.4425 2.4646,-0.4405 2.4647,-0.4385 2.4646,-0.4368 2.4647,-0.4351 2.4646,-0.4336 2.4647,-0.4324 2.4646,-0.4311 2.4646,-0.4302 2.4647,-0.4292 2.4647,-0.4286 2.4646,-0.428 2.4646,-0.4275 2.4647,-0.4273 2.4646,-0.4272 2.4647,-0.4272 2.4647,-0.4274 2.4646,-0.4278 2.4646,-0.4283 2.4647,-0.4288 2.4646,-0.4297 2.4646,-0.4307 2.4647,-0.4317"
         style="fill:none;fill-rule:evenodd"
         id="path63"
         inkscape:connector-curvature="0" />
      <path
         d="m 286,418.0857 2.4647,-3.1354 2.4646,-3.1069 2.4647,-3.0786 2.4646,-3.0503 2.4646,-3.0221 2.4647,-2.9943 2.4646,-2.9664 2.4647,-2.9389 2.4646,-2.9113 2.4647,-2.884 2.4646,-2.8568 2.4646,-2.8298 2.4647,-2.8029 2.4646,-2.7761 2.4647,-2.7496 2.4647,-2.7232 2.4646,-2.6968 2.4646,-2.6708 2.4647,-2.6448 2.4646,-2.619 2.4647,-2.5932 2.4646,-2.5678 2.4647,-2.5424 2.4646,-2.5172 2.4646,-2.4921 2.4647,-2.4672 2.4647,-2.4424 2.4646,-2.4178 2.4647,-2.3934 2.4646,-2.369 2.4647,-2.3449 2.4646,-2.3208 2.4646,-2.2971 2.4647,-2.2733 2.4646,-2.2497 2.4647,-2.2264 2.4646,-2.2031 2.4647,-2.18 2.4646,-2.157 2.4646,-2.1343 2.4647,-2.1116 2.4647,-2.0891 2.4646,-2.0668 2.4647,-2.0445 2.4646,-2.0225 2.4646,-2.0007 2.4647,-1.9789 2.4646,-1.9573 2.4647,-1.9358 2.4646,-1.9146 2.4647,-1.8935 2.4646,-1.8724 2.4647,-1.8517 2.4646,-1.8309 2.4647,-1.8104 2.4646,-1.79 2.4646,-1.7699 2.4647,-1.7497 2.4647,-1.7298 2.4646,-1.7101 2.4646,-1.6904 2.4647,-1.6709 2.4646,-1.6516 2.4647,-1.6325 2.4646,-1.6134 2.4647,-1.5946 2.4646,-1.5758 2.4646,-1.5573 2.4647,-1.5389 2.4646,-1.5206 2.4647,-1.5025 2.4647,-1.4845 2.4646,-1.4668 2.4646,-1.4491 2.4647,-1.4316 2.4646,-1.4142 2.4647,-1.397 2.4646,-1.38 2.4647,-1.363 2.4646,-1.3463 2.4647,-1.3298 2.4646,-1.3132 2.4647,-1.297 2.4646,-1.2808 2.4646,-1.2649 2.4647,-1.249 2.4647,-1.2333 2.4646,-1.2177 2.4646,-1.2024 2.4647,-1.1872 2.4646,-1.172 2.4647,-1.1571 2.4646,-1.1424 2.4647,-1.1277 2.4646,-1.1132 2.4647,-1.0989 2.4646,-1.0847 2.4646,-1.0707 2.4647,-1.0568"
         style="fill:none;fill-rule:evenodd;stroke-dasharray:1, 3"
         id="path65"
         inkscape:connector-curvature="0" />
      <path
         d="m 774,161.2857 2.4647,-0.433 2.4646,-0.4343 2.4646,-0.4359 2.4647,-0.4377 2.4646,-0.4395 2.4646,-0.4414 2.4647,-0.4437 2.4647,-0.4459 2.4646,-0.4484 2.4647,-0.451 2.4646,-0.4538 2.4646,-0.4566 2.4647,-0.4598 2.4647,-0.463 2.4646,-0.4663 2.4646,-0.4698 2.4647,-0.4735 2.4646,-0.4773 2.4646,-0.4813 2.4647,-0.4854 2.4647,-0.4897 2.4646,-0.4941 2.4646,-0.4987 2.4647,-0.5034 2.4647,-0.5083 2.4646,-0.5133 2.4647,-0.5185 2.4646,-0.5239 2.4647,-0.5292 2.4646,-0.535 2.4647,-0.5407 2.4646,-0.5467 2.4646,-0.5527 2.4647,-0.559 2.4646,-0.5654 2.4646,-0.5719 2.4647,-0.5786 2.4647,-0.5855 2.4646,-0.5924 2.4646,-0.5996 2.4647,-0.6069 2.4647,-0.6144 2.4646,-0.6219 2.4647,-0.6297 2.4646,-0.6376 2.4647,-0.6456 2.4646,-0.6539 2.4646,-0.6622 2.4647,-0.6707 2.4646,-0.6794 2.4647,-0.6882 2.4646,-0.6971 2.4646,-0.7062 2.4647,-0.7156 2.4646,-0.7249 2.4647,-0.7345 2.4646,-0.7442 2.4647,-0.7541 2.4647,-0.7641 2.4646,-0.7743 2.4646,-0.7845 2.4647,-0.7951 2.4647,-0.8057 2.4646,-0.8165 2.4646,-0.8274 2.4647,-0.8384 2.4646,-0.8497 2.4646,-0.8611 2.4647,-0.8726 2.4646,-0.8843 2.4647,-0.8961 2.4646,-0.9082 2.4647,-0.9202 2.4646,-0.9325 2.4647,-0.945 2.4647,-0.9576 2.4646,-0.9703 2.4646,-0.9832 2.4647,-0.9962 2.4647,-1.0095 2.4646,-1.0228 2.4646,-1.0363 2.4647,-1.0499 2.4646,-1.0637 2.4646,-1.0777 2.4647,-1.0918 2.4647,-1.1061 2.4646,-1.1204 2.4646,-1.135 2.4647,-1.1497 2.4646,-1.1646 2.4647,-1.1796 2.4647,-1.1947 2.4646,-1.2101 2.4646,-1.2255 2.4647,-1.2411 2.4646,-1.2569 2.4646,-1.2728 2.4647,-1.2889"
         style="fill:none;fill-rule:evenodd;stroke-dasharray:1, 3"
         id="path67"
         inkscape:connector-curvature="0" />
    </g>
  </g>
  <text
     xml:space="preserve"
     style="font-style:normal;font-weight:normal;font-size:40px;line-height:25px;font-family:sans-serif;letter-spacing:0px;word-spacing:0px;fill:#000000;fill-opacity:1;stroke:none"
     x="272.14285"
     y="323.57144"
     id="text81"><tspan
       sodipodi:role="line"
       id="tspan79"
       x="272.14285"
       y="323.57144">a0</tspan></text>
  <text
     xml:space="preserve"
     style="font-style:normal;font-weight:normal;font-size:40px;line-height:25px;font-family:sans-serif;letter-spacing:0px;word-spacing:0px;fill:#000000;fill-opacity:1;stroke:none"
     x="527.14288"
     y="195"
     id="text85"><tspan
       sodipodi:role="line"
       id="tspan83"
       x="527.14288"
       y="195">a</tspan></text>
  <text
     xml:space="preserve"
     style="font-style:normal;font-weight:normal;font-size:40px;line-height:25px;font-family:sans-serif;letter-spacing:0px;word-spacing:0px;fill:#000000;fill-opacity:1;stroke:none"
     x="762.14288"
     y="142.85715"
     id="text89"><tspan
       sodipodi:role="line"
       id="tspan87"
       x="762.14288"
       y="142.85715">b</tspan></text>
  <text
     xml:space="preserve"
     style="font-style:normal;font-weight:normal;font-size:40px;line-height:25px;font-family:sans-serif;letter-spacing:0px;word-spacing:0px;fill:#000000;fill-opacity:1;stroke:none"
     x="1042.8571"
     y="130.71429"
     id="text93"><tspan
       sodipodi:role="line"
       id="tspan91"
       x="1042.8571"
       y="130.71429">b0</tspan></text>
  <text
     xml:space="preserve"
     style="font-style:normal;font-weight:normal;font-size:40px;line-height:25px;font-family:sans-serif;letter-spacing:0px;word-spacing:0px;fill:#000000;fill-opacity:1;stroke:none"
     x="549.28571"
     y="454.28571"
     id="text97"><tspan
       sodipodi:role="line"
       id="tspan95"
       x="549.28571"
       y="454.28571">t = 0.7</tspan></text>
  <path
     style="fill:none;stroke:#000000;stroke-width:1.6;stroke-linecap:butt;stroke-linejoin:miter;stroke-opacity:1;marker-start:url(#Arrow2Lstart);marker-end:url(#Arrow2Lend);stroke-miterlimit:10;stroke-dasharray:none"
     d="M 533.57143,467 H 704.37142"
     id="path99"
     inkscape:connector-curvature="0" />
</svg>
